ISO-10303-21;
HEADER;
/*Generated by software containing ST-Developer
 * from STEP Tools, Inc. (www.steptools.com) 
 */
/*OPTION: using custom renumber hook */
/*description */
/*implementation_level */
FILE_DESCRIPTION(('STEP AP242 Edition 2','STEP AP242 Edition 2''CAx-IF Rec.Pracs.---Representation and Presentation of Product Manufa
cturing Information (PMI)---4.0---2014-10-13','STEP AP242 Edition 2''CAx-IF Rec.Pracs.---Representation and Presentation of Product Manufa
cturing Information (PMI)---4.0---2014-10-13''CAx-IF Rec.Pracs.---3D Tessellated Geometry---0.4---2014-09-14','STEP AP242 Edition 2''CAx-IF Rec.Pracs.---Representation and Presentation of Product Manufa
cturing Information (PMI)---4.0---2014-10-13''CAx-IF Rec.Pracs.---3D Tessellated Geometry---0.4---2014-09-14''2;1','STEP AP242 Edition 2''CAx-IF Rec.Pracs.---Representation and Presentation of Product Manufa
cturing Information (PMI)---4.0---2014-10-13''CAx-IF Rec.Pracs.---3D Tessellated Geometry---0.4---2014-09-14''2;1''CAx-IF Rec.Pracs.---User Defined Attributes---1.5---2016-08-15'),'2;1');
/*name */
/*time_stamp */
/*author */
/*organization */
/*preprocessor_version */
/*originating_system */
/*authorisation */
FILE_NAME('/vol/tmp/translate-12875804530057932504/Frame v2.step','2026-02-28T05:11:58',(''),(''),'ST-DEVELOPER v20','ONSHAPE BY PTC INC, 1.211','  ');
FILE_SCHEMA(('AP242_MANAGED_MODEL_BASED_3D_ENGINEERING_MIM_LF { 1 0 10303 442 3 1 4 }'));
ENDSEC;
DATA;
#10=SHAPE_REPRESENTATION_RELATIONSHIP('','',#1187,#11);
#11=ADVANCED_BREP_SHAPE_REPRESENTATION('',(#1185),#2049);
#12=ELLIPSE('',#1296,0.00848528137423857,0.006);
#13=ELLIPSE('',#1297,0.00848528137423857,0.006);
#14=ELLIPSE('',#1299,0.00848528137423857,0.006);
#15=ELLIPSE('',#1300,0.00848528137423857,0.006);
#16=ELLIPSE('',#1302,0.00848528137423857,0.006);
#17=ELLIPSE('',#1303,0.00848528137423857,0.006);
#18=ELLIPSE('',#1305,0.00848528137423857,0.006);
#19=ELLIPSE('',#1306,0.00848528137423857,0.006);
#20=TOROIDAL_SURFACE('',#1279,0.00275,0.001);
#21=TOROIDAL_SURFACE('',#1286,0.00275,0.001);
#22=TOROIDAL_SURFACE('',#1288,0.00275,0.001);
#23=TOROIDAL_SURFACE('',#1294,0.00275,0.001);
#24=CYLINDRICAL_SURFACE('',#1228,0.0015);
#25=CYLINDRICAL_SURFACE('',#1231,0.0015);
#26=CYLINDRICAL_SURFACE('',#1234,0.0015);
#27=CYLINDRICAL_SURFACE('',#1237,0.0015);
#28=CYLINDRICAL_SURFACE('',#1240,0.0015);
#29=CYLINDRICAL_SURFACE('',#1242,0.0015);
#30=CYLINDRICAL_SURFACE('',#1245,0.0015);
#31=CYLINDRICAL_SURFACE('',#1247,0.0015);
#32=CYLINDRICAL_SURFACE('',#1251,0.00174999999999998);
#33=CYLINDRICAL_SURFACE('',#1256,0.00174999999999998);
#34=CYLINDRICAL_SURFACE('',#1260,0.00174999999999998);
#35=CYLINDRICAL_SURFACE('',#1264,0.00174999999999998);
#36=CYLINDRICAL_SURFACE('',#1267,0.00304500000000016);
#37=CYLINDRICAL_SURFACE('',#1270,0.00304500000000016);
#38=CYLINDRICAL_SURFACE('',#1273,0.00304500000000016);
#39=CYLINDRICAL_SURFACE('',#1276,0.00304500000000016);
#40=CYLINDRICAL_SURFACE('',#1282,0.001);
#41=CYLINDRICAL_SURFACE('',#1284,0.001);
#42=CYLINDRICAL_SURFACE('',#1290,0.001);
#43=CYLINDRICAL_SURFACE('',#1292,0.001);
#44=CYLINDRICAL_SURFACE('',#1307,0.003);
#45=CYLINDRICAL_SURFACE('',#1311,0.003);
#46=CYLINDRICAL_SURFACE('',#1315,0.003);
#47=CYLINDRICAL_SURFACE('',#1319,0.003);
#48=CYLINDRICAL_SURFACE('',#1323,0.0017);
#49=CYLINDRICAL_SURFACE('',#1324,0.0017);
#50=CYLINDRICAL_SURFACE('',#1325,0.0017);
#51=CYLINDRICAL_SURFACE('',#1326,0.0017);
#52=CYLINDRICAL_SURFACE('',#1327,0.006);
#53=CYLINDRICAL_SURFACE('',#1328,0.006);
#54=CYLINDRICAL_SURFACE('',#1329,0.006);
#55=CYLINDRICAL_SURFACE('',#1330,0.006);
#56=LINE('',#1711,#144);
#57=LINE('',#1716,#145);
#58=LINE('',#1720,#146);
#59=LINE('',#1724,#147);
#60=LINE('',#1728,#148);
#61=LINE('',#1732,#149);
#62=LINE('',#1736,#150);
#63=LINE('',#1740,#151);
#64=LINE('',#1744,#152);
#65=LINE('',#1746,#153);
#66=LINE('',#1748,#154);
#67=LINE('',#1750,#155);
#68=LINE('',#1752,#156);
#69=LINE('',#1756,#157);
#70=LINE('',#1760,#158);
#71=LINE('',#1764,#159);
#72=LINE('',#1776,#160);
#73=LINE('',#1781,#161);
#74=LINE('',#1785,#162);
#75=LINE('',#1789,#163);
#76=LINE('',#1797,#164);
#77=LINE('',#1801,#165);
#78=LINE('',#1803,#166);
#79=LINE('',#1805,#167);
#80=LINE('',#1808,#168);
#81=LINE('',#1812,#169);
#82=LINE('',#1816,#170);
#83=LINE('',#1821,#171);
#84=LINE('',#1825,#172);
#85=LINE('',#1829,#173);
#86=LINE('',#1832,#174);
#87=LINE('',#1835,#175);
#88=LINE('',#1836,#176);
#89=LINE('',#1838,#177);
#90=LINE('',#1840,#178);
#91=LINE('',#1841,#179);
#92=LINE('',#1843,#180);
#93=LINE('',#1846,#181);
#94=LINE('',#1847,#182);
#95=LINE('',#1849,#183);
#96=LINE('',#1851,#184);
#97=LINE('',#1852,#185);
#98=LINE('',#1854,#186);
#99=LINE('',#1857,#187);
#100=LINE('',#1858,#188);
#101=LINE('',#1860,#189);
#102=LINE('',#1862,#190);
#103=LINE('',#1863,#191);
#104=LINE('',#1865,#192);
#105=LINE('',#1867,#193);
#106=LINE('',#1869,#194);
#107=LINE('',#1870,#195);
#108=LINE('',#1872,#196);
#109=LINE('',#1874,#197);
#110=LINE('',#1876,#198);
#111=LINE('',#1880,#199);
#112=LINE('',#1882,#200);
#113=LINE('',#1887,#201);
#114=LINE('',#1891,#202);
#115=LINE('',#1893,#203);
#116=LINE('',#1905,#204);
#117=LINE('',#1907,#205);
#118=LINE('',#1911,#206);
#119=LINE('',#1914,#207);
#120=LINE('',#1919,#208);
#121=LINE('',#1923,#209);
#122=LINE('',#1925,#210);
#123=LINE('',#1927,#211);
#124=LINE('',#1929,#212);
#125=LINE('',#1932,#213);
#126=LINE('',#1933,#214);
#127=LINE('',#1935,#215);
#128=LINE('',#1941,#216);
#129=LINE('',#1944,#217);
#130=LINE('',#1945,#218);
#131=LINE('',#1947,#219);
#132=LINE('',#1953,#220);
#133=LINE('',#1956,#221);
#134=LINE('',#1957,#222);
#135=LINE('',#1962,#223);
#136=LINE('',#1966,#224);
#137=LINE('',#1968,#225);
#138=LINE('',#1970,#226);
#139=LINE('',#1974,#227);
#140=LINE('',#1976,#228);
#141=LINE('',#1978,#229);
#142=LINE('',#1982,#230);
#143=LINE('',#1984,#231);
#144=VECTOR('',#1339,1.);
#145=VECTOR('',#1342,1.);
#146=VECTOR('',#1345,1.);
#147=VECTOR('',#1348,1.);
#148=VECTOR('',#1351,1.);
#149=VECTOR('',#1354,1.);
#150=VECTOR('',#1357,1.);
#151=VECTOR('',#1360,1.);
#152=VECTOR('',#1363,1.);
#153=VECTOR('',#1364,1.);
#154=VECTOR('',#1365,1.);
#155=VECTOR('',#1366,1.);
#156=VECTOR('',#1367,1.);
#157=VECTOR('',#1370,1.);
#158=VECTOR('',#1373,1.);
#159=VECTOR('',#1376,1.);
#160=VECTOR('',#1389,1.);
#161=VECTOR('',#1392,1.);
#162=VECTOR('',#1395,1.);
#163=VECTOR('',#1398,1.);
#164=VECTOR('',#1407,1.);
#165=VECTOR('',#1410,1.);
#166=VECTOR('',#1411,1.);
#167=VECTOR('',#1412,1.);
#168=VECTOR('',#1415,1.);
#169=VECTOR('',#1418,1.);
#170=VECTOR('',#1423,1.);
#171=VECTOR('',#1426,1.);
#172=VECTOR('',#1429,1.);
#173=VECTOR('',#1432,1.);
#174=VECTOR('',#1435,1.);
#175=VECTOR('',#1436,1.);
#176=VECTOR('',#1437,1.);
#177=VECTOR('',#1438,1.);
#178=VECTOR('',#1439,1.);
#179=VECTOR('',#1440,1.);
#180=VECTOR('',#1443,1.);
#181=VECTOR('',#1444,1.);
#182=VECTOR('',#1445,1.);
#183=VECTOR('',#1446,1.);
#184=VECTOR('',#1447,1.);
#185=VECTOR('',#1448,1.);
#186=VECTOR('',#1451,1.);
#187=VECTOR('',#1452,1.);
#188=VECTOR('',#1453,1.);
#189=VECTOR('',#1454,1.);
#190=VECTOR('',#1455,1.);
#191=VECTOR('',#1456,1.);
#192=VECTOR('',#1459,1.);
#193=VECTOR('',#1460,1.);
#194=VECTOR('',#1461,1.);
#195=VECTOR('',#1462,1.);
#196=VECTOR('',#1463,1.);
#197=VECTOR('',#1464,1.);
#198=VECTOR('',#1467,1.);
#199=VECTOR('',#1472,1.);
#200=VECTOR('',#1473,1.);
#201=VECTOR('',#1482,1.);
#202=VECTOR('',#1487,1.);
#203=VECTOR('',#1488,1.);
#204=VECTOR('',#1509,1.);
#205=VECTOR('',#1512,1.);
#206=VECTOR('',#1517,1.);
#207=VECTOR('',#1522,1.);
#208=VECTOR('',#1525,1.);
#209=VECTOR('',#1530,1.);
#210=VECTOR('',#1531,1.);
#211=VECTOR('',#1532,1.);
#212=VECTOR('',#1535,1.);
#213=VECTOR('',#1536,1.);
#214=VECTOR('',#1537,1.);
#215=VECTOR('',#1540,1.);
#216=VECTOR('',#1547,1.);
#217=VECTOR('',#1548,1.);
#218=VECTOR('',#1549,1.);
#219=VECTOR('',#1552,1.);
#220=VECTOR('',#1559,1.);
#221=VECTOR('',#1560,1.);
#222=VECTOR('',#1561,1.);
#223=VECTOR('',#1570,1.);
#224=VECTOR('',#1575,1.);
#225=VECTOR('',#1576,1.);
#226=VECTOR('',#1579,1.);
#227=VECTOR('',#1584,1.);
#228=VECTOR('',#1585,1.);
#229=VECTOR('',#1588,1.);
#230=VECTOR('',#1593,1.);
#231=VECTOR('',#1594,1.);
#232=ORIENTED_EDGE('',*,*,#560,.T.);
#233=ORIENTED_EDGE('',*,*,#561,.T.);
#234=ORIENTED_EDGE('',*,*,#562,.T.);
#235=ORIENTED_EDGE('',*,*,#563,.T.);
#236=ORIENTED_EDGE('',*,*,#564,.T.);
#237=ORIENTED_EDGE('',*,*,#565,.F.);
#238=ORIENTED_EDGE('',*,*,#566,.F.);
#239=ORIENTED_EDGE('',*,*,#567,.F.);
#240=ORIENTED_EDGE('',*,*,#568,.T.);
#241=ORIENTED_EDGE('',*,*,#569,.T.);
#242=ORIENTED_EDGE('',*,*,#570,.F.);
#243=ORIENTED_EDGE('',*,*,#571,.T.);
#244=ORIENTED_EDGE('',*,*,#572,.T.);
#245=ORIENTED_EDGE('',*,*,#573,.T.);
#246=ORIENTED_EDGE('',*,*,#574,.F.);
#247=ORIENTED_EDGE('',*,*,#575,.T.);
#248=ORIENTED_EDGE('',*,*,#576,.F.);
#249=ORIENTED_EDGE('',*,*,#577,.T.);
#250=ORIENTED_EDGE('',*,*,#578,.T.);
#251=ORIENTED_EDGE('',*,*,#579,.F.);
#252=ORIENTED_EDGE('',*,*,#580,.T.);
#253=ORIENTED_EDGE('',*,*,#581,.T.);
#254=ORIENTED_EDGE('',*,*,#582,.T.);
#255=ORIENTED_EDGE('',*,*,#583,.T.);
#256=ORIENTED_EDGE('',*,*,#584,.F.);
#257=ORIENTED_EDGE('',*,*,#585,.T.);
#258=ORIENTED_EDGE('',*,*,#586,.T.);
#259=ORIENTED_EDGE('',*,*,#587,.F.);
#260=ORIENTED_EDGE('',*,*,#588,.F.);
#261=ORIENTED_EDGE('',*,*,#589,.F.);
#262=ORIENTED_EDGE('',*,*,#590,.F.);
#263=ORIENTED_EDGE('',*,*,#591,.F.);
#264=ORIENTED_EDGE('',*,*,#592,.F.);
#265=ORIENTED_EDGE('',*,*,#593,.F.);
#266=ORIENTED_EDGE('',*,*,#594,.T.);
#267=ORIENTED_EDGE('',*,*,#595,.T.);
#268=ORIENTED_EDGE('',*,*,#596,.T.);
#269=ORIENTED_EDGE('',*,*,#597,.T.);
#270=ORIENTED_EDGE('',*,*,#598,.T.);
#271=ORIENTED_EDGE('',*,*,#599,.T.);
#272=ORIENTED_EDGE('',*,*,#600,.T.);
#273=ORIENTED_EDGE('',*,*,#601,.T.);
#274=ORIENTED_EDGE('',*,*,#602,.T.);
#275=ORIENTED_EDGE('',*,*,#603,.T.);
#276=ORIENTED_EDGE('',*,*,#604,.T.);
#277=ORIENTED_EDGE('',*,*,#605,.T.);
#278=ORIENTED_EDGE('',*,*,#578,.F.);
#279=ORIENTED_EDGE('',*,*,#606,.F.);
#280=ORIENTED_EDGE('',*,*,#607,.T.);
#281=ORIENTED_EDGE('',*,*,#608,.T.);
#282=ORIENTED_EDGE('',*,*,#582,.F.);
#283=ORIENTED_EDGE('',*,*,#609,.T.);
#284=ORIENTED_EDGE('',*,*,#610,.T.);
#285=ORIENTED_EDGE('',*,*,#611,.T.);
#286=ORIENTED_EDGE('',*,*,#612,.T.);
#287=ORIENTED_EDGE('',*,*,#613,.T.);
#288=ORIENTED_EDGE('',*,*,#614,.T.);
#289=ORIENTED_EDGE('',*,*,#615,.T.);
#290=ORIENTED_EDGE('',*,*,#616,.T.);
#291=ORIENTED_EDGE('',*,*,#617,.T.);
#292=ORIENTED_EDGE('',*,*,#618,.T.);
#293=ORIENTED_EDGE('',*,*,#619,.T.);
#294=ORIENTED_EDGE('',*,*,#620,.T.);
#295=ORIENTED_EDGE('',*,*,#621,.T.);
#296=ORIENTED_EDGE('',*,*,#622,.T.);
#297=ORIENTED_EDGE('',*,*,#623,.T.);
#298=ORIENTED_EDGE('',*,*,#584,.T.);
#299=ORIENTED_EDGE('',*,*,#624,.F.);
#300=ORIENTED_EDGE('',*,*,#625,.T.);
#301=ORIENTED_EDGE('',*,*,#626,.T.);
#302=ORIENTED_EDGE('',*,*,#576,.T.);
#303=ORIENTED_EDGE('',*,*,#627,.T.);
#304=ORIENTED_EDGE('',*,*,#628,.T.);
#305=ORIENTED_EDGE('',*,*,#629,.T.);
#306=ORIENTED_EDGE('',*,*,#574,.T.);
#307=ORIENTED_EDGE('',*,*,#630,.F.);
#308=ORIENTED_EDGE('',*,*,#631,.T.);
#309=ORIENTED_EDGE('',*,*,#632,.T.);
#310=ORIENTED_EDGE('',*,*,#570,.T.);
#311=ORIENTED_EDGE('',*,*,#633,.T.);
#312=ORIENTED_EDGE('',*,*,#634,.T.);
#313=ORIENTED_EDGE('',*,*,#635,.T.);
#314=ORIENTED_EDGE('',*,*,#562,.F.);
#315=ORIENTED_EDGE('',*,*,#636,.F.);
#316=ORIENTED_EDGE('',*,*,#637,.F.);
#317=ORIENTED_EDGE('',*,*,#638,.T.);
#318=ORIENTED_EDGE('',*,*,#586,.F.);
#319=ORIENTED_EDGE('',*,*,#639,.T.);
#320=ORIENTED_EDGE('',*,*,#564,.F.);
#321=ORIENTED_EDGE('',*,*,#640,.T.);
#322=ORIENTED_EDGE('',*,*,#641,.T.);
#323=ORIENTED_EDGE('',*,*,#642,.T.);
#324=ORIENTED_EDGE('',*,*,#568,.F.);
#325=ORIENTED_EDGE('',*,*,#643,.F.);
#326=ORIENTED_EDGE('',*,*,#644,.F.);
#327=ORIENTED_EDGE('',*,*,#645,.T.);
#328=ORIENTED_EDGE('',*,*,#573,.F.);
#329=ORIENTED_EDGE('',*,*,#646,.F.);
#330=ORIENTED_EDGE('',*,*,#647,.T.);
#331=ORIENTED_EDGE('',*,*,#630,.T.);
#332=ORIENTED_EDGE('',*,*,#572,.F.);
#333=ORIENTED_EDGE('',*,*,#648,.F.);
#334=ORIENTED_EDGE('',*,*,#649,.T.);
#335=ORIENTED_EDGE('',*,*,#646,.T.);
#336=ORIENTED_EDGE('',*,*,#571,.F.);
#337=ORIENTED_EDGE('',*,*,#632,.F.);
#338=ORIENTED_EDGE('',*,*,#650,.T.);
#339=ORIENTED_EDGE('',*,*,#648,.T.);
#340=ORIENTED_EDGE('',*,*,#631,.F.);
#341=ORIENTED_EDGE('',*,*,#647,.F.);
#342=ORIENTED_EDGE('',*,*,#649,.F.);
#343=ORIENTED_EDGE('',*,*,#650,.F.);
#344=ORIENTED_EDGE('',*,*,#589,.T.);
#345=ORIENTED_EDGE('',*,*,#651,.F.);
#346=ORIENTED_EDGE('',*,*,#652,.F.);
#347=ORIENTED_EDGE('',*,*,#636,.T.);
#348=ORIENTED_EDGE('',*,*,#588,.T.);
#349=ORIENTED_EDGE('',*,*,#653,.F.);
#350=ORIENTED_EDGE('',*,*,#654,.F.);
#351=ORIENTED_EDGE('',*,*,#651,.T.);
#352=ORIENTED_EDGE('',*,*,#587,.T.);
#353=ORIENTED_EDGE('',*,*,#638,.F.);
#354=ORIENTED_EDGE('',*,*,#655,.F.);
#355=ORIENTED_EDGE('',*,*,#653,.T.);
#356=ORIENTED_EDGE('',*,*,#637,.T.);
#357=ORIENTED_EDGE('',*,*,#652,.T.);
#358=ORIENTED_EDGE('',*,*,#654,.T.);
#359=ORIENTED_EDGE('',*,*,#655,.T.);
#360=ORIENTED_EDGE('',*,*,#577,.F.);
#361=ORIENTED_EDGE('',*,*,#626,.F.);
#362=ORIENTED_EDGE('',*,*,#656,.T.);
#363=ORIENTED_EDGE('',*,*,#606,.T.);
#364=ORIENTED_EDGE('',*,*,#583,.F.);
#365=ORIENTED_EDGE('',*,*,#608,.F.);
#366=ORIENTED_EDGE('',*,*,#657,.T.);
#367=ORIENTED_EDGE('',*,*,#624,.T.);
#368=ORIENTED_EDGE('',*,*,#656,.F.);
#369=ORIENTED_EDGE('',*,*,#625,.F.);
#370=ORIENTED_EDGE('',*,*,#657,.F.);
#371=ORIENTED_EDGE('',*,*,#607,.F.);
#372=ORIENTED_EDGE('',*,*,#565,.T.);
#373=ORIENTED_EDGE('',*,*,#645,.F.);
#374=ORIENTED_EDGE('',*,*,#658,.F.);
#375=ORIENTED_EDGE('',*,*,#659,.T.);
#376=ORIENTED_EDGE('',*,*,#567,.T.);
#377=ORIENTED_EDGE('',*,*,#660,.F.);
#378=ORIENTED_EDGE('',*,*,#661,.F.);
#379=ORIENTED_EDGE('',*,*,#643,.T.);
#380=ORIENTED_EDGE('',*,*,#566,.T.);
#381=ORIENTED_EDGE('',*,*,#659,.F.);
#382=ORIENTED_EDGE('',*,*,#662,.F.);
#383=ORIENTED_EDGE('',*,*,#660,.T.);
#384=ORIENTED_EDGE('',*,*,#658,.T.);
#385=ORIENTED_EDGE('',*,*,#644,.T.);
#386=ORIENTED_EDGE('',*,*,#661,.T.);
#387=ORIENTED_EDGE('',*,*,#662,.T.);
#388=ORIENTED_EDGE('',*,*,#663,.F.);
#389=ORIENTED_EDGE('',*,*,#664,.T.);
#390=ORIENTED_EDGE('',*,*,#665,.T.);
#391=ORIENTED_EDGE('',*,*,#666,.F.);
#392=ORIENTED_EDGE('',*,*,#665,.F.);
#393=ORIENTED_EDGE('',*,*,#667,.T.);
#394=ORIENTED_EDGE('',*,*,#668,.T.);
#395=ORIENTED_EDGE('',*,*,#669,.F.);
#396=ORIENTED_EDGE('',*,*,#670,.F.);
#397=ORIENTED_EDGE('',*,*,#671,.T.);
#398=ORIENTED_EDGE('',*,*,#663,.T.);
#399=ORIENTED_EDGE('',*,*,#672,.F.);
#400=ORIENTED_EDGE('',*,*,#673,.F.);
#401=ORIENTED_EDGE('',*,*,#674,.T.);
#402=ORIENTED_EDGE('',*,*,#670,.T.);
#403=ORIENTED_EDGE('',*,*,#675,.F.);
#404=ORIENTED_EDGE('',*,*,#676,.F.);
#405=ORIENTED_EDGE('',*,*,#677,.T.);
#406=ORIENTED_EDGE('',*,*,#673,.T.);
#407=ORIENTED_EDGE('',*,*,#678,.F.);
#408=ORIENTED_EDGE('',*,*,#679,.F.);
#409=ORIENTED_EDGE('',*,*,#680,.T.);
#410=ORIENTED_EDGE('',*,*,#676,.T.);
#411=ORIENTED_EDGE('',*,*,#681,.F.);
#412=ORIENTED_EDGE('',*,*,#682,.F.);
#413=ORIENTED_EDGE('',*,*,#683,.T.);
#414=ORIENTED_EDGE('',*,*,#679,.T.);
#415=ORIENTED_EDGE('',*,*,#684,.F.);
#416=ORIENTED_EDGE('',*,*,#668,.F.);
#417=ORIENTED_EDGE('',*,*,#685,.T.);
#418=ORIENTED_EDGE('',*,*,#682,.T.);
#419=ORIENTED_EDGE('',*,*,#686,.F.);
#420=ORIENTED_EDGE('',*,*,#605,.F.);
#421=ORIENTED_EDGE('',*,*,#687,.F.);
#422=ORIENTED_EDGE('',*,*,#688,.T.);
#423=ORIENTED_EDGE('',*,*,#579,.T.);
#424=ORIENTED_EDGE('',*,*,#604,.F.);
#425=ORIENTED_EDGE('',*,*,#689,.F.);
#426=ORIENTED_EDGE('',*,*,#690,.T.);
#427=ORIENTED_EDGE('',*,*,#687,.T.);
#428=ORIENTED_EDGE('',*,*,#613,.F.);
#429=ORIENTED_EDGE('',*,*,#691,.F.);
#430=ORIENTED_EDGE('',*,*,#692,.T.);
#431=ORIENTED_EDGE('',*,*,#689,.T.);
#432=ORIENTED_EDGE('',*,*,#612,.F.);
#433=ORIENTED_EDGE('',*,*,#693,.F.);
#434=ORIENTED_EDGE('',*,*,#694,.T.);
#435=ORIENTED_EDGE('',*,*,#691,.T.);
#436=ORIENTED_EDGE('',*,*,#611,.F.);
#437=ORIENTED_EDGE('',*,*,#695,.F.);
#438=ORIENTED_EDGE('',*,*,#696,.T.);
#439=ORIENTED_EDGE('',*,*,#693,.T.);
#440=ORIENTED_EDGE('',*,*,#610,.F.);
#441=ORIENTED_EDGE('',*,*,#697,.F.);
#442=ORIENTED_EDGE('',*,*,#698,.T.);
#443=ORIENTED_EDGE('',*,*,#695,.T.);
#444=ORIENTED_EDGE('',*,*,#609,.F.);
#445=ORIENTED_EDGE('',*,*,#581,.F.);
#446=ORIENTED_EDGE('',*,*,#699,.T.);
#447=ORIENTED_EDGE('',*,*,#697,.T.);
#448=ORIENTED_EDGE('',*,*,#688,.F.);
#449=ORIENTED_EDGE('',*,*,#690,.F.);
#450=ORIENTED_EDGE('',*,*,#692,.F.);
#451=ORIENTED_EDGE('',*,*,#694,.F.);
#452=ORIENTED_EDGE('',*,*,#696,.F.);
#453=ORIENTED_EDGE('',*,*,#698,.F.);
#454=ORIENTED_EDGE('',*,*,#699,.F.);
#455=ORIENTED_EDGE('',*,*,#580,.F.);
#456=ORIENTED_EDGE('',*,*,#675,.T.);
#457=ORIENTED_EDGE('',*,*,#672,.T.);
#458=ORIENTED_EDGE('',*,*,#666,.T.);
#459=ORIENTED_EDGE('',*,*,#669,.T.);
#460=ORIENTED_EDGE('',*,*,#686,.T.);
#461=ORIENTED_EDGE('',*,*,#684,.T.);
#462=ORIENTED_EDGE('',*,*,#681,.T.);
#463=ORIENTED_EDGE('',*,*,#678,.T.);
#464=ORIENTED_EDGE('',*,*,#700,.F.);
#465=ORIENTED_EDGE('',*,*,#619,.F.);
#466=ORIENTED_EDGE('',*,*,#701,.F.);
#467=ORIENTED_EDGE('',*,*,#674,.F.);
#468=ORIENTED_EDGE('',*,*,#701,.T.);
#469=ORIENTED_EDGE('',*,*,#618,.F.);
#470=ORIENTED_EDGE('',*,*,#702,.F.);
#471=ORIENTED_EDGE('',*,*,#671,.F.);
#472=ORIENTED_EDGE('',*,*,#700,.T.);
#473=ORIENTED_EDGE('',*,*,#677,.F.);
#474=ORIENTED_EDGE('',*,*,#703,.F.);
#475=ORIENTED_EDGE('',*,*,#620,.F.);
#476=ORIENTED_EDGE('',*,*,#702,.T.);
#477=ORIENTED_EDGE('',*,*,#617,.F.);
#478=ORIENTED_EDGE('',*,*,#704,.F.);
#479=ORIENTED_EDGE('',*,*,#664,.F.);
#480=ORIENTED_EDGE('',*,*,#703,.T.);
#481=ORIENTED_EDGE('',*,*,#680,.F.);
#482=ORIENTED_EDGE('',*,*,#705,.F.);
#483=ORIENTED_EDGE('',*,*,#621,.F.);
#484=ORIENTED_EDGE('',*,*,#704,.T.);
#485=ORIENTED_EDGE('',*,*,#616,.F.);
#486=ORIENTED_EDGE('',*,*,#706,.F.);
#487=ORIENTED_EDGE('',*,*,#667,.F.);
#488=ORIENTED_EDGE('',*,*,#705,.T.);
#489=ORIENTED_EDGE('',*,*,#683,.F.);
#490=ORIENTED_EDGE('',*,*,#707,.F.);
#491=ORIENTED_EDGE('',*,*,#614,.F.);
#492=ORIENTED_EDGE('',*,*,#706,.T.);
#493=ORIENTED_EDGE('',*,*,#615,.F.);
#494=ORIENTED_EDGE('',*,*,#707,.T.);
#495=ORIENTED_EDGE('',*,*,#685,.F.);
#496=ORIENTED_EDGE('',*,*,#641,.F.);
#497=ORIENTED_EDGE('',*,*,#708,.T.);
#498=ORIENTED_EDGE('',*,*,#594,.F.);
#499=ORIENTED_EDGE('',*,*,#709,.T.);
#500=ORIENTED_EDGE('',*,*,#596,.F.);
#501=ORIENTED_EDGE('',*,*,#710,.T.);
#502=ORIENTED_EDGE('',*,*,#634,.F.);
#503=ORIENTED_EDGE('',*,*,#711,.T.);
#504=ORIENTED_EDGE('',*,*,#600,.F.);
#505=ORIENTED_EDGE('',*,*,#712,.T.);
#506=ORIENTED_EDGE('',*,*,#628,.F.);
#507=ORIENTED_EDGE('',*,*,#713,.T.);
#508=ORIENTED_EDGE('',*,*,#598,.F.);
#509=ORIENTED_EDGE('',*,*,#714,.T.);
#510=ORIENTED_EDGE('',*,*,#622,.F.);
#511=ORIENTED_EDGE('',*,*,#715,.T.);
#512=ORIENTED_EDGE('',*,*,#716,.F.);
#513=ORIENTED_EDGE('',*,*,#593,.T.);
#514=ORIENTED_EDGE('',*,*,#717,.F.);
#515=ORIENTED_EDGE('',*,*,#716,.T.);
#516=ORIENTED_EDGE('',*,*,#718,.T.);
#517=ORIENTED_EDGE('',*,*,#602,.F.);
#518=ORIENTED_EDGE('',*,*,#718,.F.);
#519=ORIENTED_EDGE('',*,*,#719,.T.);
#520=ORIENTED_EDGE('',*,*,#720,.F.);
#521=ORIENTED_EDGE('',*,*,#592,.T.);
#522=ORIENTED_EDGE('',*,*,#721,.F.);
#523=ORIENTED_EDGE('',*,*,#720,.T.);
#524=ORIENTED_EDGE('',*,*,#722,.T.);
#525=ORIENTED_EDGE('',*,*,#603,.F.);
#526=ORIENTED_EDGE('',*,*,#722,.F.);
#527=ORIENTED_EDGE('',*,*,#723,.T.);
#528=ORIENTED_EDGE('',*,*,#723,.F.);
#529=ORIENTED_EDGE('',*,*,#591,.T.);
#530=ORIENTED_EDGE('',*,*,#721,.T.);
#531=ORIENTED_EDGE('',*,*,#560,.F.);
#532=ORIENTED_EDGE('',*,*,#719,.F.);
#533=ORIENTED_EDGE('',*,*,#590,.T.);
#534=ORIENTED_EDGE('',*,*,#717,.T.);
#535=ORIENTED_EDGE('',*,*,#561,.F.);
#536=ORIENTED_EDGE('',*,*,#563,.F.);
#537=ORIENTED_EDGE('',*,*,#635,.F.);
#538=ORIENTED_EDGE('',*,*,#710,.F.);
#539=ORIENTED_EDGE('',*,*,#595,.F.);
#540=ORIENTED_EDGE('',*,*,#708,.F.);
#541=ORIENTED_EDGE('',*,*,#640,.F.);
#542=ORIENTED_EDGE('',*,*,#585,.F.);
#543=ORIENTED_EDGE('',*,*,#623,.F.);
#544=ORIENTED_EDGE('',*,*,#714,.F.);
#545=ORIENTED_EDGE('',*,*,#597,.F.);
#546=ORIENTED_EDGE('',*,*,#711,.F.);
#547=ORIENTED_EDGE('',*,*,#639,.F.);
#548=ORIENTED_EDGE('',*,*,#575,.F.);
#549=ORIENTED_EDGE('',*,*,#629,.F.);
#550=ORIENTED_EDGE('',*,*,#712,.F.);
#551=ORIENTED_EDGE('',*,*,#599,.F.);
#552=ORIENTED_EDGE('',*,*,#715,.F.);
#553=ORIENTED_EDGE('',*,*,#627,.F.);
#554=ORIENTED_EDGE('',*,*,#569,.F.);
#555=ORIENTED_EDGE('',*,*,#642,.F.);
#556=ORIENTED_EDGE('',*,*,#709,.F.);
#557=ORIENTED_EDGE('',*,*,#601,.F.);
#558=ORIENTED_EDGE('',*,*,#713,.F.);
#559=ORIENTED_EDGE('',*,*,#633,.F.);
#560=EDGE_CURVE('',#724,#724,#836,.T.);
#561=EDGE_CURVE('',#725,#725,#837,.T.);
#562=EDGE_CURVE('',#726,#727,#56,.T.);
#563=EDGE_CURVE('',#727,#728,#838,.F.);
#564=EDGE_CURVE('',#728,#729,#57,.T.);
#565=EDGE_CURVE('',#730,#729,#839,.T.);
#566=EDGE_CURVE('',#731,#730,#58,.T.);
#567=EDGE_CURVE('',#732,#731,#840,.T.);
#568=EDGE_CURVE('',#732,#733,#59,.T.);
#569=EDGE_CURVE('',#733,#734,#841,.F.);
#570=EDGE_CURVE('',#735,#734,#60,.T.);
#571=EDGE_CURVE('',#735,#736,#842,.T.);
#572=EDGE_CURVE('',#736,#737,#61,.T.);
#573=EDGE_CURVE('',#737,#738,#843,.T.);
#574=EDGE_CURVE('',#739,#738,#62,.T.);
#575=EDGE_CURVE('',#739,#740,#844,.F.);
#576=EDGE_CURVE('',#741,#740,#63,.T.);
#577=EDGE_CURVE('',#741,#742,#845,.T.);
#578=EDGE_CURVE('',#742,#743,#64,.T.);
#579=EDGE_CURVE('',#744,#743,#65,.T.);
#580=EDGE_CURVE('',#744,#745,#66,.T.);
#581=EDGE_CURVE('',#745,#746,#67,.T.);
#582=EDGE_CURVE('',#746,#747,#68,.T.);
#583=EDGE_CURVE('',#747,#748,#846,.T.);
#584=EDGE_CURVE('',#749,#748,#69,.T.);
#585=EDGE_CURVE('',#749,#750,#847,.F.);
#586=EDGE_CURVE('',#750,#751,#70,.T.);
#587=EDGE_CURVE('',#752,#751,#848,.T.);
#588=EDGE_CURVE('',#753,#752,#71,.T.);
#589=EDGE_CURVE('',#726,#753,#849,.T.);
#590=EDGE_CURVE('',#754,#754,#850,.F.);
#591=EDGE_CURVE('',#755,#755,#851,.F.);
#592=EDGE_CURVE('',#756,#756,#852,.T.);
#593=EDGE_CURVE('',#757,#757,#853,.T.);
#594=EDGE_CURVE('',#758,#759,#72,.T.);
#595=EDGE_CURVE('',#759,#760,#854,.T.);
#596=EDGE_CURVE('',#760,#761,#73,.T.);
#597=EDGE_CURVE('',#761,#762,#855,.T.);
#598=EDGE_CURVE('',#762,#763,#74,.T.);
#599=EDGE_CURVE('',#763,#764,#856,.T.);
#600=EDGE_CURVE('',#764,#765,#75,.T.);
#601=EDGE_CURVE('',#765,#758,#857,.T.);
#602=EDGE_CURVE('',#766,#766,#858,.T.);
#603=EDGE_CURVE('',#767,#767,#859,.T.);
#604=EDGE_CURVE('',#768,#769,#76,.T.);
#605=EDGE_CURVE('',#769,#743,#860,.T.);
#606=EDGE_CURVE('',#770,#742,#77,.T.);
#607=EDGE_CURVE('',#770,#771,#78,.T.);
#608=EDGE_CURVE('',#771,#747,#79,.T.);
#609=EDGE_CURVE('',#746,#772,#861,.T.);
#610=EDGE_CURVE('',#772,#773,#80,.T.);
#611=EDGE_CURVE('',#773,#774,#862,.T.);
#612=EDGE_CURVE('',#774,#775,#81,.T.);
#613=EDGE_CURVE('',#775,#768,#863,.T.);
#614=EDGE_CURVE('',#776,#777,#82,.F.);
#615=EDGE_CURVE('',#777,#778,#864,.T.);
#616=EDGE_CURVE('',#778,#779,#83,.F.);
#617=EDGE_CURVE('',#779,#780,#865,.T.);
#618=EDGE_CURVE('',#780,#781,#84,.F.);
#619=EDGE_CURVE('',#781,#782,#866,.T.);
#620=EDGE_CURVE('',#782,#783,#85,.F.);
#621=EDGE_CURVE('',#783,#776,#867,.T.);
#622=EDGE_CURVE('',#784,#785,#86,.T.);
#623=EDGE_CURVE('',#785,#749,#87,.F.);
#624=EDGE_CURVE('',#786,#748,#88,.T.);
#625=EDGE_CURVE('',#786,#787,#89,.T.);
#626=EDGE_CURVE('',#787,#741,#90,.T.);
#627=EDGE_CURVE('',#740,#784,#91,.T.);
#628=EDGE_CURVE('',#788,#789,#92,.T.);
#629=EDGE_CURVE('',#789,#739,#93,.F.);
#630=EDGE_CURVE('',#790,#738,#94,.T.);
#631=EDGE_CURVE('',#790,#791,#95,.T.);
#632=EDGE_CURVE('',#791,#735,#96,.T.);
#633=EDGE_CURVE('',#734,#788,#97,.T.);
#634=EDGE_CURVE('',#792,#793,#98,.T.);
#635=EDGE_CURVE('',#793,#727,#99,.F.);
#636=EDGE_CURVE('',#794,#726,#100,.T.);
#637=EDGE_CURVE('',#795,#794,#101,.T.);
#638=EDGE_CURVE('',#795,#751,#102,.T.);
#639=EDGE_CURVE('',#750,#792,#103,.T.);
#640=EDGE_CURVE('',#728,#796,#104,.T.);
#641=EDGE_CURVE('',#796,#797,#105,.T.);
#642=EDGE_CURVE('',#797,#733,#106,.F.);
#643=EDGE_CURVE('',#798,#732,#107,.T.);
#644=EDGE_CURVE('',#799,#798,#108,.T.);
#645=EDGE_CURVE('',#799,#729,#109,.T.);
#646=EDGE_CURVE('',#800,#737,#110,.T.);
#647=EDGE_CURVE('',#800,#790,#868,.T.);
#648=EDGE_CURVE('',#801,#736,#111,.T.);
#649=EDGE_CURVE('',#801,#800,#112,.T.);
#650=EDGE_CURVE('',#791,#801,#869,.T.);
#651=EDGE_CURVE('',#802,#753,#113,.T.);
#652=EDGE_CURVE('',#794,#802,#870,.T.);
#653=EDGE_CURVE('',#803,#752,#114,.T.);
#654=EDGE_CURVE('',#802,#803,#115,.T.);
#655=EDGE_CURVE('',#803,#795,#871,.T.);
#656=EDGE_CURVE('',#787,#770,#872,.T.);
#657=EDGE_CURVE('',#771,#786,#873,.T.);
#658=EDGE_CURVE('',#804,#799,#874,.T.);
#659=EDGE_CURVE('',#804,#730,#116,.T.);
#660=EDGE_CURVE('',#805,#731,#117,.T.);
#661=EDGE_CURVE('',#798,#805,#875,.T.);
#662=EDGE_CURVE('',#805,#804,#118,.T.);
#663=EDGE_CURVE('',#806,#807,#119,.T.);
#664=EDGE_CURVE('',#806,#808,#876,.F.);
#665=EDGE_CURVE('',#808,#809,#120,.T.);
#666=EDGE_CURVE('',#807,#809,#877,.F.);
#667=EDGE_CURVE('',#808,#810,#121,.T.);
#668=EDGE_CURVE('',#810,#811,#122,.T.);
#669=EDGE_CURVE('',#809,#811,#123,.F.);
#670=EDGE_CURVE('',#812,#813,#124,.T.);
#671=EDGE_CURVE('',#812,#806,#125,.T.);
#672=EDGE_CURVE('',#813,#807,#126,.T.);
#673=EDGE_CURVE('',#814,#815,#127,.T.);
#674=EDGE_CURVE('',#814,#812,#878,.F.);
#675=EDGE_CURVE('',#815,#813,#879,.F.);
#676=EDGE_CURVE('',#816,#817,#128,.T.);
#677=EDGE_CURVE('',#816,#814,#129,.T.);
#678=EDGE_CURVE('',#817,#815,#130,.T.);
#679=EDGE_CURVE('',#818,#819,#131,.T.);
#680=EDGE_CURVE('',#818,#816,#880,.F.);
#681=EDGE_CURVE('',#819,#817,#881,.F.);
#682=EDGE_CURVE('',#820,#821,#132,.T.);
#683=EDGE_CURVE('',#820,#818,#133,.T.);
#684=EDGE_CURVE('',#821,#819,#134,.T.);
#685=EDGE_CURVE('',#810,#820,#882,.F.);
#686=EDGE_CURVE('',#811,#821,#883,.F.);
#687=EDGE_CURVE('',#822,#769,#135,.T.);
#688=EDGE_CURVE('',#822,#744,#884,.T.);
#689=EDGE_CURVE('',#823,#768,#136,.T.);
#690=EDGE_CURVE('',#823,#822,#137,.T.);
#691=EDGE_CURVE('',#824,#775,#138,.T.);
#692=EDGE_CURVE('',#824,#823,#885,.T.);
#693=EDGE_CURVE('',#825,#774,#139,.T.);
#694=EDGE_CURVE('',#825,#824,#140,.T.);
#695=EDGE_CURVE('',#826,#773,#141,.T.);
#696=EDGE_CURVE('',#826,#825,#886,.T.);
#697=EDGE_CURVE('',#827,#772,#142,.T.);
#698=EDGE_CURVE('',#827,#826,#143,.T.);
#699=EDGE_CURVE('',#745,#827,#887,.T.);
#700=EDGE_CURVE('',#782,#814,#888,.T.);
#701=EDGE_CURVE('',#812,#781,#889,.T.);
#702=EDGE_CURVE('',#806,#780,#890,.T.);
#703=EDGE_CURVE('',#783,#816,#891,.T.);
#704=EDGE_CURVE('',#808,#779,#892,.T.);
#705=EDGE_CURVE('',#776,#818,#893,.T.);
#706=EDGE_CURVE('',#810,#778,#894,.T.);
#707=EDGE_CURVE('',#777,#820,#895,.T.);
#708=EDGE_CURVE('',#796,#759,#12,.T.);
#709=EDGE_CURVE('',#758,#797,#13,.T.);
#710=EDGE_CURVE('',#760,#793,#14,.F.);
#711=EDGE_CURVE('',#792,#761,#15,.F.);
#712=EDGE_CURVE('',#764,#789,#16,.T.);
#713=EDGE_CURVE('',#788,#765,#17,.T.);
#714=EDGE_CURVE('',#762,#785,#18,.T.);
#715=EDGE_CURVE('',#784,#763,#19,.T.);
#716=EDGE_CURVE('',#828,#828,#896,.T.);
#717=EDGE_CURVE('',#829,#829,#897,.T.);
#718=EDGE_CURVE('',#830,#830,#898,.T.);
#719=EDGE_CURVE('',#831,#831,#899,.F.);
#720=EDGE_CURVE('',#832,#832,#900,.T.);
#721=EDGE_CURVE('',#833,#833,#901,.T.);
#722=EDGE_CURVE('',#834,#834,#902,.T.);
#723=EDGE_CURVE('',#835,#835,#903,.F.);
#724=VERTEX_POINT('',#1708);
#725=VERTEX_POINT('',#1710);
#726=VERTEX_POINT('',#1712);
#727=VERTEX_POINT('',#1713);
#728=VERTEX_POINT('',#1715);
#729=VERTEX_POINT('',#1717);
#730=VERTEX_POINT('',#1719);
#731=VERTEX_POINT('',#1721);
#732=VERTEX_POINT('',#1723);
#733=VERTEX_POINT('',#1725);
#734=VERTEX_POINT('',#1727);
#735=VERTEX_POINT('',#1729);
#736=VERTEX_POINT('',#1731);
#737=VERTEX_POINT('',#1733);
#738=VERTEX_POINT('',#1735);
#739=VERTEX_POINT('',#1737);
#740=VERTEX_POINT('',#1739);
#741=VERTEX_POINT('',#1741);
#742=VERTEX_POINT('',#1743);
#743=VERTEX_POINT('',#1745);
#744=VERTEX_POINT('',#1747);
#745=VERTEX_POINT('',#1749);
#746=VERTEX_POINT('',#1751);
#747=VERTEX_POINT('',#1753);
#748=VERTEX_POINT('',#1755);
#749=VERTEX_POINT('',#1757);
#750=VERTEX_POINT('',#1759);
#751=VERTEX_POINT('',#1761);
#752=VERTEX_POINT('',#1763);
#753=VERTEX_POINT('',#1765);
#754=VERTEX_POINT('',#1768);
#755=VERTEX_POINT('',#1770);
#756=VERTEX_POINT('',#1773);
#757=VERTEX_POINT('',#1775);
#758=VERTEX_POINT('',#1777);
#759=VERTEX_POINT('',#1778);
#760=VERTEX_POINT('',#1780);
#761=VERTEX_POINT('',#1782);
#762=VERTEX_POINT('',#1784);
#763=VERTEX_POINT('',#1786);
#764=VERTEX_POINT('',#1788);
#765=VERTEX_POINT('',#1790);
#766=VERTEX_POINT('',#1793);
#767=VERTEX_POINT('',#1795);
#768=VERTEX_POINT('',#1798);
#769=VERTEX_POINT('',#1799);
#770=VERTEX_POINT('',#1802);
#771=VERTEX_POINT('',#1804);
#772=VERTEX_POINT('',#1807);
#773=VERTEX_POINT('',#1809);
#774=VERTEX_POINT('',#1811);
#775=VERTEX_POINT('',#1813);
#776=VERTEX_POINT('',#1817);
#777=VERTEX_POINT('',#1818);
#778=VERTEX_POINT('',#1820);
#779=VERTEX_POINT('',#1822);
#780=VERTEX_POINT('',#1824);
#781=VERTEX_POINT('',#1826);
#782=VERTEX_POINT('',#1828);
#783=VERTEX_POINT('',#1830);
#784=VERTEX_POINT('',#1833);
#785=VERTEX_POINT('',#1834);
#786=VERTEX_POINT('',#1837);
#787=VERTEX_POINT('',#1839);
#788=VERTEX_POINT('',#1844);
#789=VERTEX_POINT('',#1845);
#790=VERTEX_POINT('',#1848);
#791=VERTEX_POINT('',#1850);
#792=VERTEX_POINT('',#1855);
#793=VERTEX_POINT('',#1856);
#794=VERTEX_POINT('',#1859);
#795=VERTEX_POINT('',#1861);
#796=VERTEX_POINT('',#1866);
#797=VERTEX_POINT('',#1868);
#798=VERTEX_POINT('',#1871);
#799=VERTEX_POINT('',#1873);
#800=VERTEX_POINT('',#1877);
#801=VERTEX_POINT('',#1881);
#802=VERTEX_POINT('',#1888);
#803=VERTEX_POINT('',#1892);
#804=VERTEX_POINT('',#1904);
#805=VERTEX_POINT('',#1908);
#806=VERTEX_POINT('',#1915);
#807=VERTEX_POINT('',#1916);
#808=VERTEX_POINT('',#1918);
#809=VERTEX_POINT('',#1920);
#810=VERTEX_POINT('',#1924);
#811=VERTEX_POINT('',#1926);
#812=VERTEX_POINT('',#1930);
#813=VERTEX_POINT('',#1931);
#814=VERTEX_POINT('',#1936);
#815=VERTEX_POINT('',#1937);
#816=VERTEX_POINT('',#1942);
#817=VERTEX_POINT('',#1943);
#818=VERTEX_POINT('',#1948);
#819=VERTEX_POINT('',#1949);
#820=VERTEX_POINT('',#1954);
#821=VERTEX_POINT('',#1955);
#822=VERTEX_POINT('',#1963);
#823=VERTEX_POINT('',#1967);
#824=VERTEX_POINT('',#1971);
#825=VERTEX_POINT('',#1975);
#826=VERTEX_POINT('',#1979);
#827=VERTEX_POINT('',#1983);
#828=VERTEX_POINT('',#2018);
#829=VERTEX_POINT('',#2021);
#830=VERTEX_POINT('',#2024);
#831=VERTEX_POINT('',#2027);
#832=VERTEX_POINT('',#2030);
#833=VERTEX_POINT('',#2033);
#834=VERTEX_POINT('',#2036);
#835=VERTEX_POINT('',#2039);
#836=CIRCLE('',#1190,0.0017);
#837=CIRCLE('',#1191,0.0017);
#838=CIRCLE('',#1192,0.006);
#839=CIRCLE('',#1193,0.0015);
#840=CIRCLE('',#1194,0.0015);
#841=CIRCLE('',#1195,0.006);
#842=CIRCLE('',#1196,0.0015);
#843=CIRCLE('',#1197,0.0015);
#844=CIRCLE('',#1198,0.006);
#845=CIRCLE('',#1199,0.0015);
#846=CIRCLE('',#1200,0.0015);
#847=CIRCLE('',#1201,0.006);
#848=CIRCLE('',#1202,0.0015);
#849=CIRCLE('',#1203,0.0015);
#850=CIRCLE('',#1204,0.0017);
#851=CIRCLE('',#1205,0.0017);
#852=CIRCLE('',#1207,0.003);
#853=CIRCLE('',#1208,0.003);
#854=CIRCLE('',#1209,0.006);
#855=CIRCLE('',#1210,0.006);
#856=CIRCLE('',#1211,0.006);
#857=CIRCLE('',#1212,0.006);
#858=CIRCLE('',#1213,0.003);
#859=CIRCLE('',#1214,0.003);
#860=CIRCLE('',#1216,0.00304500000000016);
#861=CIRCLE('',#1217,0.00304500000000016);
#862=CIRCLE('',#1218,0.00304500000000016);
#863=CIRCLE('',#1219,0.00304500000000016);
#864=CIRCLE('',#1221,0.00275);
#865=CIRCLE('',#1222,0.00275);
#866=CIRCLE('',#1223,0.00275);
#867=CIRCLE('',#1224,0.00275);
#868=CIRCLE('',#1229,0.0015);
#869=CIRCLE('',#1232,0.0015);
#870=CIRCLE('',#1235,0.0015);
#871=CIRCLE('',#1238,0.0015);
#872=CIRCLE('',#1241,0.0015);
#873=CIRCLE('',#1243,0.0015);
#874=CIRCLE('',#1246,0.0015);
#875=CIRCLE('',#1248,0.0015);
#876=CIRCLE('',#1252,0.00174999999999998);
#877=CIRCLE('',#1253,0.00174999999999998);
#878=CIRCLE('',#1257,0.00174999999999998);
#879=CIRCLE('',#1258,0.00174999999999998);
#880=CIRCLE('',#1261,0.00174999999999998);
#881=CIRCLE('',#1262,0.00174999999999998);
#882=CIRCLE('',#1265,0.00174999999999998);
#883=CIRCLE('',#1266,0.00174999999999998);
#884=CIRCLE('',#1268,0.00304500000000016);
#885=CIRCLE('',#1271,0.00304500000000016);
#886=CIRCLE('',#1274,0.00304500000000016);
#887=CIRCLE('',#1277,0.00304500000000016);
#888=CIRCLE('',#1280,0.001);
#889=CIRCLE('',#1281,0.001);
#890=CIRCLE('',#1283,0.001);
#891=CIRCLE('',#1285,0.001);
#892=CIRCLE('',#1287,0.001);
#893=CIRCLE('',#1289,0.001);
#894=CIRCLE('',#1291,0.001);
#895=CIRCLE('',#1293,0.001);
#896=CIRCLE('',#1308,0.003);
#897=CIRCLE('',#1310,0.0017);
#898=CIRCLE('',#1312,0.003);
#899=CIRCLE('',#1314,0.0017);
#900=CIRCLE('',#1316,0.003);
#901=CIRCLE('',#1318,0.0017);
#902=CIRCLE('',#1320,0.003);
#903=CIRCLE('',#1322,0.0017);
#904=EDGE_LOOP('',(#232));
#905=EDGE_LOOP('',(#233));
#906=EDGE_LOOP('',(#234,#235,#236,#237,#238,#239,#240,#241,#242,#243,#244,#245,#246,#247,#248,#249,#250,#251,#252,#253,#254,#255,#256,#257,#258,#259,#260,#261));
#907=EDGE_LOOP('',(#262));
#908=EDGE_LOOP('',(#263));
#909=EDGE_LOOP('',(#264));
#910=EDGE_LOOP('',(#265));
#911=EDGE_LOOP('',(#266,#267,#268,#269,#270,#271,#272,#273));
#912=EDGE_LOOP('',(#274));
#913=EDGE_LOOP('',(#275));
#914=EDGE_LOOP('',(#276,#277,#278,#279,#280,#281,#282,#283,#284,#285,#286,#287));
#915=EDGE_LOOP('',(#288,#289,#290,#291,#292,#293,#294,#295));
#916=EDGE_LOOP('',(#296,#297,#298,#299,#300,#301,#302,#303));
#917=EDGE_LOOP('',(#304,#305,#306,#307,#308,#309,#310,#311));
#918=EDGE_LOOP('',(#312,#313,#314,#315,#316,#317,#318,#319));
#919=EDGE_LOOP('',(#320,#321,#322,#323,#324,#325,#326,#327));
#920=EDGE_LOOP('',(#328,#329,#330,#331));
#921=EDGE_LOOP('',(#332,#333,#334,#335));
#922=EDGE_LOOP('',(#336,#337,#338,#339));
#923=EDGE_LOOP('',(#340,#341,#342,#343));
#924=EDGE_LOOP('',(#344,#345,#346,#347));
#925=EDGE_LOOP('',(#348,#349,#350,#351));
#926=EDGE_LOOP('',(#352,#353,#354,#355));
#927=EDGE_LOOP('',(#356,#357,#358,#359));
#928=EDGE_LOOP('',(#360,#361,#362,#363));
#929=EDGE_LOOP('',(#364,#365,#366,#367));
#930=EDGE_LOOP('',(#368,#369,#370,#371));
#931=EDGE_LOOP('',(#372,#373,#374,#375));
#932=EDGE_LOOP('',(#376,#377,#378,#379));
#933=EDGE_LOOP('',(#380,#381,#382,#383));
#934=EDGE_LOOP('',(#384,#385,#386,#387));
#935=EDGE_LOOP('',(#388,#389,#390,#391));
#936=EDGE_LOOP('',(#392,#393,#394,#395));
#937=EDGE_LOOP('',(#396,#397,#398,#399));
#938=EDGE_LOOP('',(#400,#401,#402,#403));
#939=EDGE_LOOP('',(#404,#405,#406,#407));
#940=EDGE_LOOP('',(#408,#409,#410,#411));
#941=EDGE_LOOP('',(#412,#413,#414,#415));
#942=EDGE_LOOP('',(#416,#417,#418,#419));
#943=EDGE_LOOP('',(#420,#421,#422,#423));
#944=EDGE_LOOP('',(#424,#425,#426,#427));
#945=EDGE_LOOP('',(#428,#429,#430,#431));
#946=EDGE_LOOP('',(#432,#433,#434,#435));
#947=EDGE_LOOP('',(#436,#437,#438,#439));
#948=EDGE_LOOP('',(#440,#441,#442,#443));
#949=EDGE_LOOP('',(#444,#445,#446,#447));
#950=EDGE_LOOP('',(#448,#449,#450,#451,#452,#453,#454,#455));
#951=EDGE_LOOP('',(#456,#457,#458,#459,#460,#461,#462,#463));
#952=EDGE_LOOP('',(#464,#465,#466,#467));
#953=EDGE_LOOP('',(#468,#469,#470,#471));
#954=EDGE_LOOP('',(#472,#473,#474,#475));
#955=EDGE_LOOP('',(#476,#477,#478,#479));
#956=EDGE_LOOP('',(#480,#481,#482,#483));
#957=EDGE_LOOP('',(#484,#485,#486,#487));
#958=EDGE_LOOP('',(#488,#489,#490,#491));
#959=EDGE_LOOP('',(#492,#493,#494,#495));
#960=EDGE_LOOP('',(#496,#497,#498,#499));
#961=EDGE_LOOP('',(#500,#501,#502,#503));
#962=EDGE_LOOP('',(#504,#505,#506,#507));
#963=EDGE_LOOP('',(#508,#509,#510,#511));
#964=EDGE_LOOP('',(#512));
#965=EDGE_LOOP('',(#513));
#966=EDGE_LOOP('',(#514));
#967=EDGE_LOOP('',(#515));
#968=EDGE_LOOP('',(#516));
#969=EDGE_LOOP('',(#517));
#970=EDGE_LOOP('',(#518));
#971=EDGE_LOOP('',(#519));
#972=EDGE_LOOP('',(#520));
#973=EDGE_LOOP('',(#521));
#974=EDGE_LOOP('',(#522));
#975=EDGE_LOOP('',(#523));
#976=EDGE_LOOP('',(#524));
#977=EDGE_LOOP('',(#525));
#978=EDGE_LOOP('',(#526));
#979=EDGE_LOOP('',(#527));
#980=EDGE_LOOP('',(#528));
#981=EDGE_LOOP('',(#529));
#982=EDGE_LOOP('',(#530));
#983=EDGE_LOOP('',(#531));
#984=EDGE_LOOP('',(#532));
#985=EDGE_LOOP('',(#533));
#986=EDGE_LOOP('',(#534));
#987=EDGE_LOOP('',(#535));
#988=EDGE_LOOP('',(#536,#537,#538,#539,#540,#541));
#989=EDGE_LOOP('',(#542,#543,#544,#545,#546,#547));
#990=EDGE_LOOP('',(#548,#549,#550,#551,#552,#553));
#991=EDGE_LOOP('',(#554,#555,#556,#557,#558,#559));
#992=FACE_BOUND('',#904,.T.);
#993=FACE_BOUND('',#905,.T.);
#994=FACE_BOUND('',#906,.T.);
#995=FACE_BOUND('',#907,.T.);
#996=FACE_BOUND('',#908,.T.);
#997=FACE_BOUND('',#909,.T.);
#998=FACE_BOUND('',#910,.T.);
#999=FACE_BOUND('',#911,.T.);
#1000=FACE_BOUND('',#912,.T.);
#1001=FACE_BOUND('',#913,.T.);
#1002=FACE_BOUND('',#914,.T.);
#1003=FACE_BOUND('',#915,.T.);
#1004=FACE_BOUND('',#916,.T.);
#1005=FACE_BOUND('',#917,.T.);
#1006=FACE_BOUND('',#918,.T.);
#1007=FACE_BOUND('',#919,.T.);
#1008=FACE_BOUND('',#920,.T.);
#1009=FACE_BOUND('',#921,.T.);
#1010=FACE_BOUND('',#922,.T.);
#1011=FACE_BOUND('',#923,.T.);
#1012=FACE_BOUND('',#924,.T.);
#1013=FACE_BOUND('',#925,.T.);
#1014=FACE_BOUND('',#926,.T.);
#1015=FACE_BOUND('',#927,.T.);
#1016=FACE_BOUND('',#928,.T.);
#1017=FACE_BOUND('',#929,.T.);
#1018=FACE_BOUND('',#930,.T.);
#1019=FACE_BOUND('',#931,.T.);
#1020=FACE_BOUND('',#932,.T.);
#1021=FACE_BOUND('',#933,.T.);
#1022=FACE_BOUND('',#934,.T.);
#1023=FACE_BOUND('',#935,.T.);
#1024=FACE_BOUND('',#936,.T.);
#1025=FACE_BOUND('',#937,.T.);
#1026=FACE_BOUND('',#938,.T.);
#1027=FACE_BOUND('',#939,.T.);
#1028=FACE_BOUND('',#940,.T.);
#1029=FACE_BOUND('',#941,.T.);
#1030=FACE_BOUND('',#942,.T.);
#1031=FACE_BOUND('',#943,.T.);
#1032=FACE_BOUND('',#944,.T.);
#1033=FACE_BOUND('',#945,.T.);
#1034=FACE_BOUND('',#946,.T.);
#1035=FACE_BOUND('',#947,.T.);
#1036=FACE_BOUND('',#948,.T.);
#1037=FACE_BOUND('',#949,.T.);
#1038=FACE_BOUND('',#950,.T.);
#1039=FACE_BOUND('',#951,.T.);
#1040=FACE_BOUND('',#952,.T.);
#1041=FACE_BOUND('',#953,.T.);
#1042=FACE_BOUND('',#954,.T.);
#1043=FACE_BOUND('',#955,.T.);
#1044=FACE_BOUND('',#956,.T.);
#1045=FACE_BOUND('',#957,.T.);
#1046=FACE_BOUND('',#958,.T.);
#1047=FACE_BOUND('',#959,.T.);
#1048=FACE_BOUND('',#960,.T.);
#1049=FACE_BOUND('',#961,.T.);
#1050=FACE_BOUND('',#962,.T.);
#1051=FACE_BOUND('',#963,.T.);
#1052=FACE_BOUND('',#964,.T.);
#1053=FACE_BOUND('',#965,.T.);
#1054=FACE_BOUND('',#966,.T.);
#1055=FACE_BOUND('',#967,.T.);
#1056=FACE_BOUND('',#968,.T.);
#1057=FACE_BOUND('',#969,.T.);
#1058=FACE_BOUND('',#970,.T.);
#1059=FACE_BOUND('',#971,.T.);
#1060=FACE_BOUND('',#972,.T.);
#1061=FACE_BOUND('',#973,.T.);
#1062=FACE_BOUND('',#974,.T.);
#1063=FACE_BOUND('',#975,.T.);
#1064=FACE_BOUND('',#976,.T.);
#1065=FACE_BOUND('',#977,.T.);
#1066=FACE_BOUND('',#978,.T.);
#1067=FACE_BOUND('',#979,.T.);
#1068=FACE_BOUND('',#980,.T.);
#1069=FACE_BOUND('',#981,.T.);
#1070=FACE_BOUND('',#982,.T.);
#1071=FACE_BOUND('',#983,.T.);
#1072=FACE_BOUND('',#984,.T.);
#1073=FACE_BOUND('',#985,.T.);
#1074=FACE_BOUND('',#986,.T.);
#1075=FACE_BOUND('',#987,.T.);
#1076=FACE_BOUND('',#988,.T.);
#1077=FACE_BOUND('',#989,.T.);
#1078=FACE_BOUND('',#990,.T.);
#1079=FACE_BOUND('',#991,.T.);
#1080=PLANE('',#1189);
#1081=PLANE('',#1206);
#1082=PLANE('',#1215);
#1083=PLANE('',#1220);
#1084=PLANE('',#1225);
#1085=PLANE('',#1226);
#1086=PLANE('',#1227);
#1087=PLANE('',#1230);
#1088=PLANE('',#1233);
#1089=PLANE('',#1236);
#1090=PLANE('',#1239);
#1091=PLANE('',#1244);
#1092=PLANE('',#1249);
#1093=PLANE('',#1250);
#1094=PLANE('',#1254);
#1095=PLANE('',#1255);
#1096=PLANE('',#1259);
#1097=PLANE('',#1263);
#1098=PLANE('',#1269);
#1099=PLANE('',#1272);
#1100=PLANE('',#1275);
#1101=PLANE('',#1278);
#1102=PLANE('',#1295);
#1103=PLANE('',#1298);
#1104=PLANE('',#1301);
#1105=PLANE('',#1304);
#1106=PLANE('',#1309);
#1107=PLANE('',#1313);
#1108=PLANE('',#1317);
#1109=PLANE('',#1321);
#1110=ADVANCED_FACE('',(#992,#993,#994,#995,#996),#1080,.F.);
#1111=ADVANCED_FACE('',(#997,#998,#999,#1000,#1001),#1081,.T.);
#1112=ADVANCED_FACE('',(#1002),#1082,.T.);
#1113=ADVANCED_FACE('',(#1003,#1004),#1083,.F.);
#1114=ADVANCED_FACE('',(#1005),#1084,.F.);
#1115=ADVANCED_FACE('',(#1006),#1085,.T.);
#1116=ADVANCED_FACE('',(#1007),#1086,.F.);
#1117=ADVANCED_FACE('',(#1008),#24,.T.);
#1118=ADVANCED_FACE('',(#1009),#1087,.T.);
#1119=ADVANCED_FACE('',(#1010),#25,.T.);
#1120=ADVANCED_FACE('',(#1011),#1088,.T.);
#1121=ADVANCED_FACE('',(#1012),#26,.T.);
#1122=ADVANCED_FACE('',(#1013),#1089,.F.);
#1123=ADVANCED_FACE('',(#1014),#27,.T.);
#1124=ADVANCED_FACE('',(#1015),#1090,.T.);
#1125=ADVANCED_FACE('',(#1016),#28,.T.);
#1126=ADVANCED_FACE('',(#1017),#29,.T.);
#1127=ADVANCED_FACE('',(#1018),#1091,.T.);
#1128=ADVANCED_FACE('',(#1019),#30,.T.);
#1129=ADVANCED_FACE('',(#1020),#31,.T.);
#1130=ADVANCED_FACE('',(#1021),#1092,.F.);
#1131=ADVANCED_FACE('',(#1022),#1093,.T.);
#1132=ADVANCED_FACE('',(#1023),#32,.F.);
#1133=ADVANCED_FACE('',(#1024),#1094,.T.);
#1134=ADVANCED_FACE('',(#1025),#1095,.T.);
#1135=ADVANCED_FACE('',(#1026),#33,.F.);
#1136=ADVANCED_FACE('',(#1027),#1096,.T.);
#1137=ADVANCED_FACE('',(#1028),#34,.F.);
#1138=ADVANCED_FACE('',(#1029),#1097,.T.);
#1139=ADVANCED_FACE('',(#1030),#35,.F.);
#1140=ADVANCED_FACE('',(#1031),#36,.T.);
#1141=ADVANCED_FACE('',(#1032),#1098,.T.);
#1142=ADVANCED_FACE('',(#1033),#37,.T.);
#1143=ADVANCED_FACE('',(#1034),#1099,.T.);
#1144=ADVANCED_FACE('',(#1035),#38,.T.);
#1145=ADVANCED_FACE('',(#1036),#1100,.T.);
#1146=ADVANCED_FACE('',(#1037),#39,.T.);
#1147=ADVANCED_FACE('',(#1038,#1039),#1101,.T.);
#1148=ADVANCED_FACE('',(#1040),#20,.T.);
#1149=ADVANCED_FACE('',(#1041),#40,.T.);
#1150=ADVANCED_FACE('',(#1042),#41,.T.);
#1151=ADVANCED_FACE('',(#1043),#21,.T.);
#1152=ADVANCED_FACE('',(#1044),#22,.T.);
#1153=ADVANCED_FACE('',(#1045),#42,.T.);
#1154=ADVANCED_FACE('',(#1046),#43,.T.);
#1155=ADVANCED_FACE('',(#1047),#23,.T.);
#1156=ADVANCED_FACE('',(#1048),#1102,.T.);
#1157=ADVANCED_FACE('',(#1049),#1103,.F.);
#1158=ADVANCED_FACE('',(#1050),#1104,.T.);
#1159=ADVANCED_FACE('',(#1051),#1105,.T.);
#1160=ADVANCED_FACE('',(#1052,#1053),#44,.F.);
#1161=ADVANCED_FACE('',(#1054,#1055),#1106,.T.);
#1162=ADVANCED_FACE('',(#1056,#1057),#45,.F.);
#1163=ADVANCED_FACE('',(#1058,#1059),#1107,.T.);
#1164=ADVANCED_FACE('',(#1060,#1061),#46,.F.);
#1165=ADVANCED_FACE('',(#1062,#1063),#1108,.T.);
#1166=ADVANCED_FACE('',(#1064,#1065),#47,.F.);
#1167=ADVANCED_FACE('',(#1066,#1067),#1109,.T.);
#1168=ADVANCED_FACE('',(#1068,#1069),#48,.F.);
#1169=ADVANCED_FACE('',(#1070,#1071),#49,.F.);
#1170=ADVANCED_FACE('',(#1072,#1073),#50,.F.);
#1171=ADVANCED_FACE('',(#1074,#1075),#51,.F.);
#1172=ADVANCED_FACE('',(#1076),#52,.T.);
#1173=ADVANCED_FACE('',(#1077),#53,.T.);
#1174=ADVANCED_FACE('',(#1078),#54,.T.);
#1175=ADVANCED_FACE('',(#1079),#55,.T.);
#1176=CLOSED_SHELL('',(#1110,#1111,#1112,#1113,#1114,#1115,#1116,#1117,#1118,#1119,#1120,#1121,#1122,#1123,#1124,#1125,#1126,#1127,#1128,#1129,#1130,#1131,#1132,#1133,#1134,#1135,#1136,#1137,#1138,#1139,#1140,#1141,#1142,#1143,#1144,#1145,#1146,#1147,#1148,#1149,#1150,#1151,#1152,#1153,#1154,#1155,#1156,#1157,#1158,#1159,#1160,#1161,#1162,#1163,#1164,#1165,#1166,#1167,#1168,#1169,#1170,#1171,#1172,#1173,#1174,#1175));
#1177=STYLED_ITEM('',(#1178),#1185);
#1178=PRESENTATION_STYLE_ASSIGNMENT((#1179));
#1179=SURFACE_STYLE_USAGE(.BOTH.,#1180);
#1180=SURFACE_SIDE_STYLE('',(#1181));
#1181=SURFACE_STYLE_FILL_AREA(#1182);
#1182=FILL_AREA_STYLE('',(#1183));
#1183=FILL_AREA_STYLE_COLOUR('',#1184);
#1184=COLOUR_RGB('',0.980392156862745,0.713725490196078,0.00392156862745098);
#1185=MANIFOLD_SOLID_BREP('Base',#1176);
#1186=SHAPE_DEFINITION_REPRESENTATION(#2054,#1187);
#1187=SHAPE_REPRESENTATION('Base',(#1188),#2049);
#1188=AXIS2_PLACEMENT_3D('',#1705,#1331,#1332);
#1189=AXIS2_PLACEMENT_3D('',#1706,#1333,#1334);
#1190=AXIS2_PLACEMENT_3D('',#1707,#1335,#1336);
#1191=AXIS2_PLACEMENT_3D('',#1709,#1337,#1338);
#1192=AXIS2_PLACEMENT_3D('',#1714,#1340,#1341);
#1193=AXIS2_PLACEMENT_3D('',#1718,#1343,#1344);
#1194=AXIS2_PLACEMENT_3D('',#1722,#1346,#1347);
#1195=AXIS2_PLACEMENT_3D('',#1726,#1349,#1350);
#1196=AXIS2_PLACEMENT_3D('',#1730,#1352,#1353);
#1197=AXIS2_PLACEMENT_3D('',#1734,#1355,#1356);
#1198=AXIS2_PLACEMENT_3D('',#1738,#1358,#1359);
#1199=AXIS2_PLACEMENT_3D('',#1742,#1361,#1362);
#1200=AXIS2_PLACEMENT_3D('',#1754,#1368,#1369);
#1201=AXIS2_PLACEMENT_3D('',#1758,#1371,#1372);
#1202=AXIS2_PLACEMENT_3D('',#1762,#1374,#1375);
#1203=AXIS2_PLACEMENT_3D('',#1766,#1377,#1378);
#1204=AXIS2_PLACEMENT_3D('',#1767,#1379,#1380);
#1205=AXIS2_PLACEMENT_3D('',#1769,#1381,#1382);
#1206=AXIS2_PLACEMENT_3D('',#1771,#1383,#1384);
#1207=AXIS2_PLACEMENT_3D('',#1772,#1385,#1386);
#1208=AXIS2_PLACEMENT_3D('',#1774,#1387,#1388);
#1209=AXIS2_PLACEMENT_3D('',#1779,#1390,#1391);
#1210=AXIS2_PLACEMENT_3D('',#1783,#1393,#1394);
#1211=AXIS2_PLACEMENT_3D('',#1787,#1396,#1397);
#1212=AXIS2_PLACEMENT_3D('',#1791,#1399,#1400);
#1213=AXIS2_PLACEMENT_3D('',#1792,#1401,#1402);
#1214=AXIS2_PLACEMENT_3D('',#1794,#1403,#1404);
#1215=AXIS2_PLACEMENT_3D('',#1796,#1405,#1406);
#1216=AXIS2_PLACEMENT_3D('',#1800,#1408,#1409);
#1217=AXIS2_PLACEMENT_3D('',#1806,#1413,#1414);
#1218=AXIS2_PLACEMENT_3D('',#1810,#1416,#1417);
#1219=AXIS2_PLACEMENT_3D('',#1814,#1419,#1420);
#1220=AXIS2_PLACEMENT_3D('',#1815,#1421,#1422);
#1221=AXIS2_PLACEMENT_3D('',#1819,#1424,#1425);
#1222=AXIS2_PLACEMENT_3D('',#1823,#1427,#1428);
#1223=AXIS2_PLACEMENT_3D('',#1827,#1430,#1431);
#1224=AXIS2_PLACEMENT_3D('',#1831,#1433,#1434);
#1225=AXIS2_PLACEMENT_3D('',#1842,#1441,#1442);
#1226=AXIS2_PLACEMENT_3D('',#1853,#1449,#1450);
#1227=AXIS2_PLACEMENT_3D('',#1864,#1457,#1458);
#1228=AXIS2_PLACEMENT_3D('',#1875,#1465,#1466);
#1229=AXIS2_PLACEMENT_3D('',#1878,#1468,#1469);
#1230=AXIS2_PLACEMENT_3D('',#1879,#1470,#1471);
#1231=AXIS2_PLACEMENT_3D('',#1883,#1474,#1475);
#1232=AXIS2_PLACEMENT_3D('',#1884,#1476,#1477);
#1233=AXIS2_PLACEMENT_3D('',#1885,#1478,#1479);
#1234=AXIS2_PLACEMENT_3D('',#1886,#1480,#1481);
#1235=AXIS2_PLACEMENT_3D('',#1889,#1483,#1484);
#1236=AXIS2_PLACEMENT_3D('',#1890,#1485,#1486);
#1237=AXIS2_PLACEMENT_3D('',#1894,#1489,#1490);
#1238=AXIS2_PLACEMENT_3D('',#1895,#1491,#1492);
#1239=AXIS2_PLACEMENT_3D('',#1896,#1493,#1494);
#1240=AXIS2_PLACEMENT_3D('',#1897,#1495,#1496);
#1241=AXIS2_PLACEMENT_3D('',#1898,#1497,#1498);
#1242=AXIS2_PLACEMENT_3D('',#1899,#1499,#1500);
#1243=AXIS2_PLACEMENT_3D('',#1900,#1501,#1502);
#1244=AXIS2_PLACEMENT_3D('',#1901,#1503,#1504);
#1245=AXIS2_PLACEMENT_3D('',#1902,#1505,#1506);
#1246=AXIS2_PLACEMENT_3D('',#1903,#1507,#1508);
#1247=AXIS2_PLACEMENT_3D('',#1906,#1510,#1511);
#1248=AXIS2_PLACEMENT_3D('',#1909,#1513,#1514);
#1249=AXIS2_PLACEMENT_3D('',#1910,#1515,#1516);
#1250=AXIS2_PLACEMENT_3D('',#1912,#1518,#1519);
#1251=AXIS2_PLACEMENT_3D('',#1913,#1520,#1521);
#1252=AXIS2_PLACEMENT_3D('',#1917,#1523,#1524);
#1253=AXIS2_PLACEMENT_3D('',#1921,#1526,#1527);
#1254=AXIS2_PLACEMENT_3D('',#1922,#1528,#1529);
#1255=AXIS2_PLACEMENT_3D('',#1928,#1533,#1534);
#1256=AXIS2_PLACEMENT_3D('',#1934,#1538,#1539);
#1257=AXIS2_PLACEMENT_3D('',#1938,#1541,#1542);
#1258=AXIS2_PLACEMENT_3D('',#1939,#1543,#1544);
#1259=AXIS2_PLACEMENT_3D('',#1940,#1545,#1546);
#1260=AXIS2_PLACEMENT_3D('',#1946,#1550,#1551);
#1261=AXIS2_PLACEMENT_3D('',#1950,#1553,#1554);
#1262=AXIS2_PLACEMENT_3D('',#1951,#1555,#1556);
#1263=AXIS2_PLACEMENT_3D('',#1952,#1557,#1558);
#1264=AXIS2_PLACEMENT_3D('',#1958,#1562,#1563);
#1265=AXIS2_PLACEMENT_3D('',#1959,#1564,#1565);
#1266=AXIS2_PLACEMENT_3D('',#1960,#1566,#1567);
#1267=AXIS2_PLACEMENT_3D('',#1961,#1568,#1569);
#1268=AXIS2_PLACEMENT_3D('',#1964,#1571,#1572);
#1269=AXIS2_PLACEMENT_3D('',#1965,#1573,#1574);
#1270=AXIS2_PLACEMENT_3D('',#1969,#1577,#1578);
#1271=AXIS2_PLACEMENT_3D('',#1972,#1580,#1581);
#1272=AXIS2_PLACEMENT_3D('',#1973,#1582,#1583);
#1273=AXIS2_PLACEMENT_3D('',#1977,#1586,#1587);
#1274=AXIS2_PLACEMENT_3D('',#1980,#1589,#1590);
#1275=AXIS2_PLACEMENT_3D('',#1981,#1591,#1592);
#1276=AXIS2_PLACEMENT_3D('',#1985,#1595,#1596);
#1277=AXIS2_PLACEMENT_3D('',#1986,#1597,#1598);
#1278=AXIS2_PLACEMENT_3D('',#1987,#1599,#1600);
#1279=AXIS2_PLACEMENT_3D('',#1988,#1601,#1602);
#1280=AXIS2_PLACEMENT_3D('',#1989,#1603,#1604);
#1281=AXIS2_PLACEMENT_3D('',#1990,#1605,#1606);
#1282=AXIS2_PLACEMENT_3D('',#1991,#1607,#1608);
#1283=AXIS2_PLACEMENT_3D('',#1992,#1609,#1610);
#1284=AXIS2_PLACEMENT_3D('',#1993,#1611,#1612);
#1285=AXIS2_PLACEMENT_3D('',#1994,#1613,#1614);
#1286=AXIS2_PLACEMENT_3D('',#1995,#1615,#1616);
#1287=AXIS2_PLACEMENT_3D('',#1996,#1617,#1618);
#1288=AXIS2_PLACEMENT_3D('',#1997,#1619,#1620);
#1289=AXIS2_PLACEMENT_3D('',#1998,#1621,#1622);
#1290=AXIS2_PLACEMENT_3D('',#1999,#1623,#1624);
#1291=AXIS2_PLACEMENT_3D('',#2000,#1625,#1626);
#1292=AXIS2_PLACEMENT_3D('',#2001,#1627,#1628);
#1293=AXIS2_PLACEMENT_3D('',#2002,#1629,#1630);
#1294=AXIS2_PLACEMENT_3D('',#2003,#1631,#1632);
#1295=AXIS2_PLACEMENT_3D('',#2004,#1633,#1634);
#1296=AXIS2_PLACEMENT_3D('',#2005,#1635,#1636);
#1297=AXIS2_PLACEMENT_3D('',#2006,#1637,#1638);
#1298=AXIS2_PLACEMENT_3D('',#2007,#1639,#1640);
#1299=AXIS2_PLACEMENT_3D('',#2008,#1641,#1642);
#1300=AXIS2_PLACEMENT_3D('',#2009,#1643,#1644);
#1301=AXIS2_PLACEMENT_3D('',#2010,#1645,#1646);
#1302=AXIS2_PLACEMENT_3D('',#2011,#1647,#1648);
#1303=AXIS2_PLACEMENT_3D('',#2012,#1649,#1650);
#1304=AXIS2_PLACEMENT_3D('',#2013,#1651,#1652);
#1305=AXIS2_PLACEMENT_3D('',#2014,#1653,#1654);
#1306=AXIS2_PLACEMENT_3D('',#2015,#1655,#1656);
#1307=AXIS2_PLACEMENT_3D('',#2016,#1657,#1658);
#1308=AXIS2_PLACEMENT_3D('',#2017,#1659,#1660);
#1309=AXIS2_PLACEMENT_3D('',#2019,#1661,#1662);
#1310=AXIS2_PLACEMENT_3D('',#2020,#1663,#1664);
#1311=AXIS2_PLACEMENT_3D('',#2022,#1665,#1666);
#1312=AXIS2_PLACEMENT_3D('',#2023,#1667,#1668);
#1313=AXIS2_PLACEMENT_3D('',#2025,#1669,#1670);
#1314=AXIS2_PLACEMENT_3D('',#2026,#1671,#1672);
#1315=AXIS2_PLACEMENT_3D('',#2028,#1673,#1674);
#1316=AXIS2_PLACEMENT_3D('',#2029,#1675,#1676);
#1317=AXIS2_PLACEMENT_3D('',#2031,#1677,#1678);
#1318=AXIS2_PLACEMENT_3D('',#2032,#1679,#1680);
#1319=AXIS2_PLACEMENT_3D('',#2034,#1681,#1682);
#1320=AXIS2_PLACEMENT_3D('',#2035,#1683,#1684);
#1321=AXIS2_PLACEMENT_3D('',#2037,#1685,#1686);
#1322=AXIS2_PLACEMENT_3D('',#2038,#1687,#1688);
#1323=AXIS2_PLACEMENT_3D('',#2040,#1689,#1690);
#1324=AXIS2_PLACEMENT_3D('',#2041,#1691,#1692);
#1325=AXIS2_PLACEMENT_3D('',#2042,#1693,#1694);
#1326=AXIS2_PLACEMENT_3D('',#2043,#1695,#1696);
#1327=AXIS2_PLACEMENT_3D('',#2044,#1697,#1698);
#1328=AXIS2_PLACEMENT_3D('',#2045,#1699,#1700);
#1329=AXIS2_PLACEMENT_3D('',#2046,#1701,#1702);
#1330=AXIS2_PLACEMENT_3D('',#2047,#1703,#1704);
#1331=DIRECTION('',(0.,0.,1.));
#1332=DIRECTION('',(1.,0.,0.));
#1333=DIRECTION('',(0.,0.,1.));
#1334=DIRECTION('',(1.,0.,0.));
#1335=DIRECTION('',(0.,0.,1.));
#1336=DIRECTION('',(1.,0.,0.));
#1337=DIRECTION('',(0.,0.,1.));
#1338=DIRECTION('',(1.,0.,0.));
#1339=DIRECTION('',(0.,-1.,0.));
#1340=DIRECTION('',(0.,0.,1.));
#1341=DIRECTION('',(1.,0.,0.));
#1342=DIRECTION('',(-1.,0.,0.));
#1343=DIRECTION('',(0.,0.,-1.));
#1344=DIRECTION('',(-1.,0.,0.));
#1345=DIRECTION('',(1.,-1.77920356510442E-16,0.));
#1346=DIRECTION('',(0.,0.,-1.));
#1347=DIRECTION('',(-1.,0.,0.));
#1348=DIRECTION('',(-1.,0.,0.));
#1349=DIRECTION('',(0.,0.,1.));
#1350=DIRECTION('',(1.,0.,0.));
#1351=DIRECTION('',(0.,-1.,0.));
#1352=DIRECTION('',(0.,0.,1.));
#1353=DIRECTION('',(-1.,0.,0.));
#1354=DIRECTION('',(-1.77920356510442E-16,1.,0.));
#1355=DIRECTION('',(0.,0.,1.));
#1356=DIRECTION('',(-1.,0.,0.));
#1357=DIRECTION('',(0.,-1.,0.));
#1358=DIRECTION('',(0.,0.,1.));
#1359=DIRECTION('',(1.,0.,0.));
#1360=DIRECTION('',(-1.,0.,0.));
#1361=DIRECTION('',(0.,0.,1.));
#1362=DIRECTION('',(-1.,0.,0.));
#1363=DIRECTION('',(1.,1.77920356510442E-16,0.));
#1364=DIRECTION('',(-1.77920356510442E-16,1.,0.));
#1365=DIRECTION('',(1.,1.77920356510442E-16,0.));
#1366=DIRECTION('',(-1.77920356510442E-16,1.,0.));
#1367=DIRECTION('',(1.,1.77920356510442E-16,0.));
#1368=DIRECTION('',(0.,0.,1.));
#1369=DIRECTION('',(-1.,0.,0.));
#1370=DIRECTION('',(-1.,0.,0.));
#1371=DIRECTION('',(0.,0.,1.));
#1372=DIRECTION('',(1.,0.,0.));
#1373=DIRECTION('',(0.,-1.,0.));
#1374=DIRECTION('',(0.,0.,-1.));
#1375=DIRECTION('',(-1.,0.,0.));
#1376=DIRECTION('',(1.77920356510442E-16,1.,0.));
#1377=DIRECTION('',(0.,0.,-1.));
#1378=DIRECTION('',(-1.,0.,0.));
#1379=DIRECTION('',(0.,0.,1.));
#1380=DIRECTION('',(1.,0.,0.));
#1381=DIRECTION('',(0.,0.,1.));
#1382=DIRECTION('',(1.,0.,0.));
#1383=DIRECTION('',(0.,0.,1.));
#1384=DIRECTION('',(1.,0.,0.));
#1385=DIRECTION('',(0.,0.,1.));
#1386=DIRECTION('',(1.,0.,0.));
#1387=DIRECTION('',(0.,0.,1.));
#1388=DIRECTION('',(1.,0.,0.));
#1389=DIRECTION('',(1.,-1.21430643318376E-16,0.));
#1390=DIRECTION('',(0.,0.,1.));
#1391=DIRECTION('',(1.,0.,0.));
#1392=DIRECTION('',(0.,1.,0.));
#1393=DIRECTION('',(0.,0.,1.));
#1394=DIRECTION('',(1.,0.,0.));
#1395=DIRECTION('',(-1.,0.,0.));
#1396=DIRECTION('',(0.,0.,1.));
#1397=DIRECTION('',(1.,0.,0.));
#1398=DIRECTION('',(0.,-1.,0.));
#1399=DIRECTION('',(0.,0.,1.));
#1400=DIRECTION('',(1.,0.,0.));
#1401=DIRECTION('',(0.,0.,-1.));
#1402=DIRECTION('',(1.,0.,0.));
#1403=DIRECTION('',(0.,0.,-1.));
#1404=DIRECTION('',(1.,0.,0.));
#1405=DIRECTION('',(1.77920356510442E-16,-1.,0.));
#1406=DIRECTION('',(1.,1.77920356510442E-16,0.));
#1407=DIRECTION('',(0.,0.,1.));
#1408=DIRECTION('',(-1.77920356510442E-16,1.,0.));
#1409=DIRECTION('',(1.,1.77920356510442E-16,0.));
#1410=DIRECTION('',(0.,0.,1.));
#1411=DIRECTION('',(1.,1.77920356510442E-16,0.));
#1412=DIRECTION('',(0.,0.,1.));
#1413=DIRECTION('',(-1.77920356510442E-16,1.,0.));
#1414=DIRECTION('',(1.,1.77920356510442E-16,0.));
#1415=DIRECTION('',(0.,0.,-1.));
#1416=DIRECTION('',(-1.77920356510442E-16,1.,0.));
#1417=DIRECTION('',(1.,1.77920356510442E-16,0.));
#1418=DIRECTION('',(-1.,-1.77920356510442E-16,0.));
#1419=DIRECTION('',(-1.77920356510442E-16,1.,0.));
#1420=DIRECTION('',(1.,1.77920356510442E-16,0.));
#1421=DIRECTION('',(0.,-1.,0.));
#1422=DIRECTION('',(0.,0.,-1.));
#1423=DIRECTION('',(-1.,0.,-3.69720451617938E-18));
#1424=DIRECTION('',(0.,-1.,0.));
#1425=DIRECTION('',(0.,0.,-1.));
#1426=DIRECTION('',(-9.2430319699931E-19,0.,-1.));
#1427=DIRECTION('',(0.,-1.,0.));
#1428=DIRECTION('',(0.,0.,-1.));
#1429=DIRECTION('',(1.,0.,3.69720451617938E-18));
#1430=DIRECTION('',(0.,-1.,0.));
#1431=DIRECTION('',(0.,0.,-1.));
#1432=DIRECTION('',(9.2430319699931E-19,0.,1.));
#1433=DIRECTION('',(0.,-1.,0.));
#1434=DIRECTION('',(0.,0.,-1.));
#1435=DIRECTION('',(1.,0.,0.));
#1436=DIRECTION('',(0.,0.,1.));
#1437=DIRECTION('',(0.,0.,1.));
#1438=DIRECTION('',(-1.,-3.55840713020884E-16,0.));
#1439=DIRECTION('',(0.,0.,1.));
#1440=DIRECTION('',(0.,0.,1.));
#1441=DIRECTION('',(1.,0.,0.));
#1442=DIRECTION('',(0.,0.,-1.));
#1443=DIRECTION('',(0.,1.,0.));
#1444=DIRECTION('',(0.,0.,1.));
#1445=DIRECTION('',(0.,0.,1.));
#1446=DIRECTION('',(3.55840713020884E-16,-1.,0.));
#1447=DIRECTION('',(0.,0.,1.));
#1448=DIRECTION('',(0.,0.,1.));
#1449=DIRECTION('',(1.,0.,0.));
#1450=DIRECTION('',(0.,0.,-1.));
#1451=DIRECTION('',(0.,-1.,0.));
#1452=DIRECTION('',(0.,0.,1.));
#1453=DIRECTION('',(0.,0.,1.));
#1454=DIRECTION('',(0.,-1.,0.));
#1455=DIRECTION('',(0.,0.,1.));
#1456=DIRECTION('',(0.,0.,1.));
#1457=DIRECTION('',(1.21430643318376E-16,1.,0.));
#1458=DIRECTION('',(0.,0.,-1.));
#1459=DIRECTION('',(0.,0.,1.));
#1460=DIRECTION('',(-1.,1.21430643318376E-16,0.));
#1461=DIRECTION('',(0.,0.,1.));
#1462=DIRECTION('',(0.,0.,1.));
#1463=DIRECTION('',(-1.,1.21430643318376E-16,0.));
#1464=DIRECTION('',(0.,0.,1.));
#1465=DIRECTION('',(0.,0.,1.));
#1466=DIRECTION('',(1.,0.,0.));
#1467=DIRECTION('',(0.,0.,1.));
#1468=DIRECTION('',(0.,0.,1.));
#1469=DIRECTION('',(-1.,0.,0.));
#1470=DIRECTION('',(1.,1.77920356510442E-16,0.));
#1471=DIRECTION('',(-1.77920356510442E-16,1.,0.));
#1472=DIRECTION('',(0.,0.,1.));
#1473=DIRECTION('',(-1.77920356510442E-16,1.,0.));
#1474=DIRECTION('',(0.,0.,1.));
#1475=DIRECTION('',(1.,0.,0.));
#1476=DIRECTION('',(0.,0.,1.));
#1477=DIRECTION('',(-1.,0.,0.));
#1478=DIRECTION('',(0.,0.,-1.));
#1479=DIRECTION('',(1.,0.,0.));
#1480=DIRECTION('',(0.,0.,1.));
#1481=DIRECTION('',(1.,0.,0.));
#1482=DIRECTION('',(0.,0.,1.));
#1483=DIRECTION('',(0.,0.,-1.));
#1484=DIRECTION('',(-1.,0.,0.));
#1485=DIRECTION('',(1.,-1.77920356510442E-16,0.));
#1486=DIRECTION('',(1.77920356510442E-16,1.,0.));
#1487=DIRECTION('',(0.,0.,1.));
#1488=DIRECTION('',(1.77920356510442E-16,1.,0.));
#1489=DIRECTION('',(0.,0.,1.));
#1490=DIRECTION('',(1.,0.,0.));
#1491=DIRECTION('',(0.,0.,-1.));
#1492=DIRECTION('',(-1.,0.,0.));
#1493=DIRECTION('',(0.,0.,-1.));
#1494=DIRECTION('',(1.,0.,0.));
#1495=DIRECTION('',(0.,0.,1.));
#1496=DIRECTION('',(1.,0.,0.));
#1497=DIRECTION('',(0.,0.,1.));
#1498=DIRECTION('',(-1.,0.,0.));
#1499=DIRECTION('',(0.,0.,1.));
#1500=DIRECTION('',(1.,0.,0.));
#1501=DIRECTION('',(0.,0.,1.));
#1502=DIRECTION('',(-1.,0.,0.));
#1503=DIRECTION('',(0.,0.,-1.));
#1504=DIRECTION('',(1.,0.,0.));
#1505=DIRECTION('',(0.,0.,1.));
#1506=DIRECTION('',(1.,0.,0.));
#1507=DIRECTION('',(0.,0.,-1.));
#1508=DIRECTION('',(-1.,0.,0.));
#1509=DIRECTION('',(0.,0.,1.));
#1510=DIRECTION('',(0.,0.,1.));
#1511=DIRECTION('',(1.,0.,0.));
#1512=DIRECTION('',(0.,0.,1.));
#1513=DIRECTION('',(0.,0.,-1.));
#1514=DIRECTION('',(-1.,0.,0.));
#1515=DIRECTION('',(-1.77920356510442E-16,-1.,0.));
#1516=DIRECTION('',(1.,-1.77920356510442E-16,0.));
#1517=DIRECTION('',(1.,-1.77920356510442E-16,0.));
#1518=DIRECTION('',(0.,0.,-1.));
#1519=DIRECTION('',(1.,0.,0.));
#1520=DIRECTION('',(1.33695190859049E-15,-1.,3.0172537166406E-15));
#1521=DIRECTION('',(0.,-3.0172537166406E-15,-1.));
#1522=DIRECTION('',(1.33695190859049E-15,-1.,3.0172537166406E-15));
#1523=DIRECTION('',(0.,-1.,0.));
#1524=DIRECTION('',(0.,0.,-1.));
#1525=DIRECTION('',(1.33695190859049E-15,-1.,3.0172537166406E-15));
#1526=DIRECTION('',(1.33695190859049E-15,-1.,3.0172537166406E-15));
#1527=DIRECTION('',(0.,-3.0172537166406E-15,-1.));
#1528=DIRECTION('',(-1.,-1.33695190859049E-15,9.2430319699931E-19));
#1529=DIRECTION('',(1.33695190859049E-15,-1.,0.));
#1530=DIRECTION('',(-9.2430319699931E-19,0.,-1.));
#1531=DIRECTION('',(1.33695190859049E-15,-1.,3.0172537166406E-15));
#1532=DIRECTION('',(9.2430319699931E-19,1.23574892334452E-33,1.));
#1533=DIRECTION('',(3.69720451617938E-18,-3.0172537166406E-15,-1.));
#1534=DIRECTION('',(0.,1.,-3.0172537166406E-15));
#1535=DIRECTION('',(1.33695190859049E-15,-1.,3.0172537166406E-15));
#1536=DIRECTION('',(1.,-1.3684555315672E-48,3.69720451617938E-18));
#1537=DIRECTION('',(1.,1.77920356510442E-16,3.69720451617884E-18));
#1538=DIRECTION('',(1.33695190859049E-15,-1.,3.0172537166406E-15));
#1539=DIRECTION('',(0.,-3.0172537166406E-15,-1.));
#1540=DIRECTION('',(1.33695190859049E-15,-1.,3.0172537166406E-15));
#1541=DIRECTION('',(0.,-1.,0.));
#1542=DIRECTION('',(0.,0.,-1.));
#1543=DIRECTION('',(1.33695190859049E-15,-1.,3.0172537166406E-15));
#1544=DIRECTION('',(0.,-3.0172537166406E-15,-1.));
#1545=DIRECTION('',(1.,1.33695190859049E-15,-9.2430319699931E-19));
#1546=DIRECTION('',(-1.33695190859049E-15,1.,0.));
#1547=DIRECTION('',(1.33695190859049E-15,-1.,3.0172537166406E-15));
#1548=DIRECTION('',(9.2430319699931E-19,0.,1.));
#1549=DIRECTION('',(9.2430319699931E-19,1.23574892334452E-33,1.));
#1550=DIRECTION('',(1.33695190859049E-15,-1.,3.0172537166406E-15));
#1551=DIRECTION('',(0.,-3.0172537166406E-15,-1.));
#1552=DIRECTION('',(1.33695190859049E-15,-1.,3.0172537166406E-15));
#1553=DIRECTION('',(0.,-1.,0.));
#1554=DIRECTION('',(0.,0.,-1.));
#1555=DIRECTION('',(1.33695190859049E-15,-1.,3.0172537166406E-15));
#1556=DIRECTION('',(0.,-3.0172537166406E-15,-1.));
#1557=DIRECTION('',(-3.69720451617938E-18,3.0172537166406E-15,1.));
#1558=DIRECTION('',(0.,-1.,3.0172537166406E-15));
#1559=DIRECTION('',(1.33695190859049E-15,-1.,3.0172537166406E-15));
#1560=DIRECTION('',(-1.,1.3684555315672E-48,-3.69720451617938E-18));
#1561=DIRECTION('',(-1.,-1.77920356510442E-16,-3.69720451617884E-18));
#1562=DIRECTION('',(1.33695190859049E-15,-1.,3.0172537166406E-15));
#1563=DIRECTION('',(0.,-3.0172537166406E-15,-1.));
#1564=DIRECTION('',(0.,-1.,0.));
#1565=DIRECTION('',(0.,0.,-1.));
#1566=DIRECTION('',(1.33695190859049E-15,-1.,3.0172537166406E-15));
#1567=DIRECTION('',(0.,-3.0172537166406E-15,-1.));
#1568=DIRECTION('',(-1.77920356510442E-16,1.,0.));
#1569=DIRECTION('',(-1.,-1.77920356510442E-16,0.));
#1570=DIRECTION('',(-1.77920356510442E-16,1.,0.));
#1571=DIRECTION('',(-1.77920356510442E-16,1.,0.));
#1572=DIRECTION('',(1.,1.77920356510442E-16,0.));
#1573=DIRECTION('',(-1.,-1.77920356510442E-16,0.));
#1574=DIRECTION('',(1.77920356510442E-16,-1.,0.));
#1575=DIRECTION('',(-1.77920356510442E-16,1.,0.));
#1576=DIRECTION('',(0.,0.,1.));
#1577=DIRECTION('',(-1.77920356510442E-16,1.,0.));
#1578=DIRECTION('',(-1.,-1.77920356510442E-16,0.));
#1579=DIRECTION('',(-1.77920356510442E-16,1.,0.));
#1580=DIRECTION('',(-1.77920356510442E-16,1.,0.));
#1581=DIRECTION('',(1.,1.77920356510442E-16,0.));
#1582=DIRECTION('',(0.,0.,-1.));
#1583=DIRECTION('',(-1.,0.,0.));
#1584=DIRECTION('',(-1.77920356510442E-16,1.,0.));
#1585=DIRECTION('',(-1.,-1.77920356510442E-16,0.));
#1586=DIRECTION('',(-1.77920356510442E-16,1.,0.));
#1587=DIRECTION('',(-1.,-1.77920356510442E-16,0.));
#1588=DIRECTION('',(-1.77920356510442E-16,1.,0.));
#1589=DIRECTION('',(-1.77920356510442E-16,1.,0.));
#1590=DIRECTION('',(1.,1.77920356510442E-16,0.));
#1591=DIRECTION('',(1.,1.77920356510442E-16,0.));
#1592=DIRECTION('',(-1.77920356510442E-16,1.,0.));
#1593=DIRECTION('',(-1.77920356510442E-16,1.,0.));
#1594=DIRECTION('',(0.,0.,-1.));
#1595=DIRECTION('',(-1.77920356510442E-16,1.,0.));
#1596=DIRECTION('',(-1.,-1.77920356510442E-16,0.));
#1597=DIRECTION('',(-1.77920356510442E-16,1.,0.));
#1598=DIRECTION('',(1.,1.77920356510442E-16,0.));
#1599=DIRECTION('',(1.77920356510442E-16,-1.,0.));
#1600=DIRECTION('',(1.,1.77920356510442E-16,0.));
#1601=DIRECTION('',(0.,-1.,0.));
#1602=DIRECTION('',(0.,0.,-1.));
#1603=DIRECTION('',(0.,0.,-1.));
#1604=DIRECTION('',(-1.,0.,0.));
#1605=DIRECTION('',(1.,0.,0.));
#1606=DIRECTION('',(0.,0.,-1.));
#1607=DIRECTION('',(-1.,0.,-3.69720451617938E-18));
#1608=DIRECTION('',(-3.69720451617938E-18,0.,1.));
#1609=DIRECTION('',(1.,0.,0.));
#1610=DIRECTION('',(0.,0.,-1.));
#1611=DIRECTION('',(-9.2430319699931E-19,0.,-1.));
#1612=DIRECTION('',(-1.,0.,9.2430319699931E-19));
#1613=DIRECTION('',(0.,0.,-1.));
#1614=DIRECTION('',(-1.,0.,0.));
#1615=DIRECTION('',(0.,-1.,0.));
#1616=DIRECTION('',(0.,0.,-1.));
#1617=DIRECTION('',(0.,0.,-1.));
#1618=DIRECTION('',(-1.,0.,0.));
#1619=DIRECTION('',(0.,-1.,0.));
#1620=DIRECTION('',(0.,0.,-1.));
#1621=DIRECTION('',(1.,0.,0.));
#1622=DIRECTION('',(0.,0.,-1.));
#1623=DIRECTION('',(9.2430319699931E-19,0.,1.));
#1624=DIRECTION('',(1.,0.,-9.2430319699931E-19));
#1625=DIRECTION('',(0.,0.,-1.));
#1626=DIRECTION('',(-1.,0.,0.));
#1627=DIRECTION('',(1.,0.,3.69720451617938E-18));
#1628=DIRECTION('',(3.69720451617938E-18,0.,-1.));
#1629=DIRECTION('',(1.,0.,0.));
#1630=DIRECTION('',(0.,0.,-1.));
#1631=DIRECTION('',(0.,-1.,0.));
#1632=DIRECTION('',(0.,0.,-1.));
#1633=DIRECTION('',(-8.58644313342689E-17,-0.707106781186547,0.707106781186548));
#1634=DIRECTION('',(1.,-1.21430643318376E-16,0.));
#1635=DIRECTION('',(-8.58644313342689E-17,-0.707106781186547,0.707106781186548));
#1636=DIRECTION('',(-8.5864431334269E-17,-0.707106781186548,-0.707106781186547));
#1637=DIRECTION('',(-8.58644313342689E-17,-0.707106781186547,0.707106781186548));
#1638=DIRECTION('',(8.5864431334269E-17,0.707106781186548,0.707106781186547));
#1639=DIRECTION('',(-0.707106781186547,0.,-0.707106781186548));
#1640=DIRECTION('',(0.,-1.,0.));
#1641=DIRECTION('',(-0.707106781186547,0.,-0.707106781186548));
#1642=DIRECTION('',(0.707106781186548,0.,-0.707106781186547));
#1643=DIRECTION('',(-0.707106781186547,0.,-0.707106781186548));
#1644=DIRECTION('',(0.707106781186548,0.,-0.707106781186547));
#1645=DIRECTION('',(-0.707106781186547,0.,0.707106781186548));
#1646=DIRECTION('',(0.,1.,0.));
#1647=DIRECTION('',(-0.707106781186547,0.,0.707106781186548));
#1648=DIRECTION('',(0.707106781186548,0.,0.707106781186547));
#1649=DIRECTION('',(-0.707106781186547,0.,0.707106781186548));
#1650=DIRECTION('',(0.707106781186548,0.,0.707106781186547));
#1651=DIRECTION('',(0.,0.707106781186547,0.707106781186548));
#1652=DIRECTION('',(1.,0.,0.));
#1653=DIRECTION('',(0.,0.707106781186547,0.707106781186548));
#1654=DIRECTION('',(0.,0.707106781186548,-0.707106781186547));
#1655=DIRECTION('',(0.,0.707106781186547,0.707106781186548));
#1656=DIRECTION('',(0.,-0.707106781186548,0.707106781186547));
#1657=DIRECTION('',(0.,0.,1.));
#1658=DIRECTION('',(1.,0.,0.));
#1659=DIRECTION('',(0.,0.,1.));
#1660=DIRECTION('',(1.,0.,0.));
#1661=DIRECTION('',(0.,0.,1.));
#1662=DIRECTION('',(1.,0.,0.));
#1663=DIRECTION('',(0.,0.,1.));
#1664=DIRECTION('',(1.,0.,0.));
#1665=DIRECTION('',(0.,0.,1.));
#1666=DIRECTION('',(1.,0.,0.));
#1667=DIRECTION('',(0.,0.,-1.));
#1668=DIRECTION('',(1.,0.,0.));
#1669=DIRECTION('',(0.,0.,1.));
#1670=DIRECTION('',(1.,0.,0.));
#1671=DIRECTION('',(0.,0.,1.));
#1672=DIRECTION('',(1.,0.,0.));
#1673=DIRECTION('',(0.,0.,1.));
#1674=DIRECTION('',(1.,0.,0.));
#1675=DIRECTION('',(0.,0.,1.));
#1676=DIRECTION('',(1.,0.,0.));
#1677=DIRECTION('',(0.,0.,1.));
#1678=DIRECTION('',(1.,0.,0.));
#1679=DIRECTION('',(0.,0.,1.));
#1680=DIRECTION('',(1.,0.,0.));
#1681=DIRECTION('',(0.,0.,1.));
#1682=DIRECTION('',(1.,0.,0.));
#1683=DIRECTION('',(0.,0.,-1.));
#1684=DIRECTION('',(1.,0.,0.));
#1685=DIRECTION('',(0.,0.,1.));
#1686=DIRECTION('',(1.,0.,0.));
#1687=DIRECTION('',(0.,0.,1.));
#1688=DIRECTION('',(1.,0.,0.));
#1689=DIRECTION('',(0.,0.,1.));
#1690=DIRECTION('',(1.,0.,0.));
#1691=DIRECTION('',(0.,0.,1.));
#1692=DIRECTION('',(1.,0.,0.));
#1693=DIRECTION('',(0.,0.,1.));
#1694=DIRECTION('',(1.,0.,0.));
#1695=DIRECTION('',(0.,0.,1.));
#1696=DIRECTION('',(1.,0.,0.));
#1697=DIRECTION('',(0.,0.,-1.));
#1698=DIRECTION('',(-1.,0.,0.));
#1699=DIRECTION('',(0.,0.,-1.));
#1700=DIRECTION('',(-1.,0.,0.));
#1701=DIRECTION('',(0.,0.,1.));
#1702=DIRECTION('',(1.,0.,0.));
#1703=DIRECTION('',(0.,0.,1.));
#1704=DIRECTION('',(1.,0.,0.));
#1705=CARTESIAN_POINT('',(0.,0.,0.));
#1706=CARTESIAN_POINT('',(0.,0.00426776695296635,0.));
#1707=CARTESIAN_POINT('',(0.0445,0.0445,0.));
#1708=CARTESIAN_POINT('',(0.0462,0.0445,0.));
#1709=CARTESIAN_POINT('',(-0.0445,-0.0445,0.));
#1710=CARTESIAN_POINT('',(-0.0428,-0.0445,0.));
#1711=CARTESIAN_POINT('',(0.049,0.00426776695296635,0.));
#1712=CARTESIAN_POINT('',(0.049,-0.039,0.));
#1713=CARTESIAN_POINT('',(0.049,-0.043,0.));
#1714=CARTESIAN_POINT('',(0.043,-0.043,0.));
#1715=CARTESIAN_POINT('',(0.043,-0.049,0.));
#1716=CARTESIAN_POINT('',(0.,-0.049,0.));
#1717=CARTESIAN_POINT('',(0.039,-0.049,0.));
#1718=CARTESIAN_POINT('',(0.039,-0.0475,0.));
#1719=CARTESIAN_POINT('',(0.039,-0.046,0.));
#1720=CARTESIAN_POINT('',(0.,-0.046,0.));
#1721=CARTESIAN_POINT('',(-0.039,-0.046,0.));
#1722=CARTESIAN_POINT('',(-0.039,-0.0475,0.));
#1723=CARTESIAN_POINT('',(-0.039,-0.049,0.));
#1724=CARTESIAN_POINT('',(0.,-0.049,0.));
#1725=CARTESIAN_POINT('',(-0.043,-0.049,0.));
#1726=CARTESIAN_POINT('',(-0.043,-0.043,0.));
#1727=CARTESIAN_POINT('',(-0.049,-0.043,0.));
#1728=CARTESIAN_POINT('',(-0.049,0.00426776695296635,0.));
#1729=CARTESIAN_POINT('',(-0.049,-0.039,0.));
#1730=CARTESIAN_POINT('',(-0.0475,-0.039,0.));
#1731=CARTESIAN_POINT('',(-0.046,-0.039,0.));
#1732=CARTESIAN_POINT('',(-0.046,-6.93889390390723E-18,0.));
#1733=CARTESIAN_POINT('',(-0.046,0.039,0.));
#1734=CARTESIAN_POINT('',(-0.0475,0.039,0.));
#1735=CARTESIAN_POINT('',(-0.049,0.039,0.));
#1736=CARTESIAN_POINT('',(-0.049,0.00426776695296635,0.));
#1737=CARTESIAN_POINT('',(-0.049,0.043,0.));
#1738=CARTESIAN_POINT('',(-0.043,0.043,0.));
#1739=CARTESIAN_POINT('',(-0.043,0.049,0.));
#1740=CARTESIAN_POINT('',(0.,0.049,0.));
#1741=CARTESIAN_POINT('',(-0.039,0.049,0.));
#1742=CARTESIAN_POINT('',(-0.039,0.0475,0.));
#1743=CARTESIAN_POINT('',(-0.039,0.046,0.));
#1744=CARTESIAN_POINT('',(0.,0.046,0.));
#1745=CARTESIAN_POINT('',(0.00648997198463676,0.046,0.));
#1746=CARTESIAN_POINT('',(0.00648997198463677,0.0424,0.));
#1747=CARTESIAN_POINT('',(0.00648997198463677,0.0424,0.));
#1748=CARTESIAN_POINT('',(6.40513283437591E-19,0.0424,0.));
#1749=CARTESIAN_POINT('',(0.0129299719846366,0.0424,0.));
#1750=CARTESIAN_POINT('',(0.0129299719846366,0.0424,0.));
#1751=CARTESIAN_POINT('',(0.0129299719846366,0.046,0.));
#1752=CARTESIAN_POINT('',(0.,0.046,0.));
#1753=CARTESIAN_POINT('',(0.039,0.046,0.));
#1754=CARTESIAN_POINT('',(0.039,0.0475,0.));
#1755=CARTESIAN_POINT('',(0.039,0.049,0.));
#1756=CARTESIAN_POINT('',(0.,0.049,0.));
#1757=CARTESIAN_POINT('',(0.043,0.049,0.));
#1758=CARTESIAN_POINT('',(0.043,0.043,0.));
#1759=CARTESIAN_POINT('',(0.049,0.043,0.));
#1760=CARTESIAN_POINT('',(0.049,0.00426776695296635,0.));
#1761=CARTESIAN_POINT('',(0.049,0.039,0.));
#1762=CARTESIAN_POINT('',(0.0475,0.039,0.));
#1763=CARTESIAN_POINT('',(0.046,0.039,0.));
#1764=CARTESIAN_POINT('',(0.046,0.,0.));
#1765=CARTESIAN_POINT('',(0.046,-0.039,0.));
#1766=CARTESIAN_POINT('',(0.0475,-0.039,0.));
#1767=CARTESIAN_POINT('',(-0.0445,0.0445,0.));
#1768=CARTESIAN_POINT('',(-0.0428,0.0445,0.));
#1769=CARTESIAN_POINT('',(0.0445,-0.0445,0.));
#1770=CARTESIAN_POINT('',(0.0462,-0.0445,0.));
#1771=CARTESIAN_POINT('',(0.,0.00426776695296635,0.003));
#1772=CARTESIAN_POINT('',(0.0445,0.0445,0.003));
#1773=CARTESIAN_POINT('',(0.0475,0.0445,0.003));
#1774=CARTESIAN_POINT('',(-0.0445,-0.0445,0.003));
#1775=CARTESIAN_POINT('',(-0.0415,-0.0445,0.003));
#1776=CARTESIAN_POINT('',(0.049,-0.048,0.003));
#1777=CARTESIAN_POINT('',(-0.0463166247903554,-0.048,0.003));
#1778=CARTESIAN_POINT('',(0.0463166247903554,-0.048,0.003));
#1779=CARTESIAN_POINT('',(0.043,-0.043,0.003));
#1780=CARTESIAN_POINT('',(0.048,-0.0463166247903554,0.003));
#1781=CARTESIAN_POINT('',(0.048,0.00426776695296635,0.003));
#1782=CARTESIAN_POINT('',(0.048,0.0463166247903554,0.003));
#1783=CARTESIAN_POINT('',(0.043,0.043,0.003));
#1784=CARTESIAN_POINT('',(0.0463166247903554,0.048,0.003));
#1785=CARTESIAN_POINT('',(-0.049,0.048,0.003));
#1786=CARTESIAN_POINT('',(-0.0463166247903554,0.048,0.003));
#1787=CARTESIAN_POINT('',(-0.043,0.043,0.003));
#1788=CARTESIAN_POINT('',(-0.048,0.0463166247903554,0.003));
#1789=CARTESIAN_POINT('',(-0.048,-0.049,0.003));
#1790=CARTESIAN_POINT('',(-0.048,-0.0463166247903554,0.003));
#1791=CARTESIAN_POINT('',(-0.043,-0.043,0.003));
#1792=CARTESIAN_POINT('',(-0.0445,0.0445,0.003));
#1793=CARTESIAN_POINT('',(-0.0415,0.0445,0.003));
#1794=CARTESIAN_POINT('',(0.0445,-0.0445,0.003));
#1795=CARTESIAN_POINT('',(0.0475,-0.0445,0.003));
#1796=CARTESIAN_POINT('',(0.,0.046,-0.0112));
#1797=CARTESIAN_POINT('',(0.00344497198463663,0.046,-0.00470000000000021));
#1798=CARTESIAN_POINT('',(0.0034449719846366,0.046,-0.0063550000000002));
#1799=CARTESIAN_POINT('',(0.00344497198463663,0.046,-0.00304500000000022));
#1800=CARTESIAN_POINT('',(0.00648997198463676,0.046,-0.00304500000000022));
#1801=CARTESIAN_POINT('',(-0.039,0.046,-0.0112));
#1802=CARTESIAN_POINT('',(-0.039,0.046,-0.0112));
#1803=CARTESIAN_POINT('',(0.,0.046,-0.0112));
#1804=CARTESIAN_POINT('',(0.039,0.046,-0.0112));
#1805=CARTESIAN_POINT('',(0.039,0.046,-0.0112));
#1806=CARTESIAN_POINT('',(0.0129299719846366,0.046,-0.00304500000000022));
#1807=CARTESIAN_POINT('',(0.0159749719846368,0.046,-0.00304500000000022));
#1808=CARTESIAN_POINT('',(0.0159749719846368,0.046,-0.00470000000000021));
#1809=CARTESIAN_POINT('',(0.0159749719846367,0.046,-0.0063550000000002));
#1810=CARTESIAN_POINT('',(0.0129299719846366,0.046,-0.0063550000000002));
#1811=CARTESIAN_POINT('',(0.0129299719846366,0.046,-0.0094000000000003));
#1812=CARTESIAN_POINT('',(0.00970997198463668,0.046,-0.0094000000000003));
#1813=CARTESIAN_POINT('',(0.00648997198463676,0.046,-0.0094000000000003));
#1814=CARTESIAN_POINT('',(0.00648997198463676,0.046,-0.0063550000000002));
#1815=CARTESIAN_POINT('',(3.46944695195361E-18,0.049,0.003));
#1816=CARTESIAN_POINT('',(0.0129299719846366,0.049,-0.00910500000000011));
#1817=CARTESIAN_POINT('',(0.00648997198463679,0.049,-0.00910500000000011));
#1818=CARTESIAN_POINT('',(0.0129299719846366,0.049,-0.00910500000000011));
#1819=CARTESIAN_POINT('',(0.0129299719846366,0.049,-0.00635500000000015));
#1820=CARTESIAN_POINT('',(0.0156799719846366,0.049,-0.00635500000000015));
#1821=CARTESIAN_POINT('',(0.0156799719846366,0.049,-0.00304500000000021));
#1822=CARTESIAN_POINT('',(0.0156799719846366,0.049,-0.00304500000000016));
#1823=CARTESIAN_POINT('',(0.0129299719846366,0.049,-0.00304500000000016));
#1824=CARTESIAN_POINT('',(0.0129299719846366,0.049,-0.000295000000000193));
#1825=CARTESIAN_POINT('',(0.00648997198463678,0.049,-0.000295000000000193));
#1826=CARTESIAN_POINT('',(0.00648997198463679,0.049,-0.000295000000000187));
#1827=CARTESIAN_POINT('',(0.00648997198463679,0.049,-0.00304500000000016));
#1828=CARTESIAN_POINT('',(0.00373997198463682,0.049,-0.00304500000000016));
#1829=CARTESIAN_POINT('',(0.00373997198463682,0.049,-0.00635500000000019));
#1830=CARTESIAN_POINT('',(0.00373997198463681,0.049,-0.00635500000000015));
#1831=CARTESIAN_POINT('',(0.00648997198463679,0.049,-0.00635500000000015));
#1832=CARTESIAN_POINT('',(0.049,0.049,0.002));
#1833=CARTESIAN_POINT('',(-0.043,0.049,0.002));
#1834=CARTESIAN_POINT('',(0.043,0.049,0.002));
#1835=CARTESIAN_POINT('',(0.043,0.049,0.));
#1836=CARTESIAN_POINT('',(0.039,0.049,-0.0112));
#1837=CARTESIAN_POINT('',(0.039,0.049,-0.0112));
#1838=CARTESIAN_POINT('',(0.,0.049,-0.0112));
#1839=CARTESIAN_POINT('',(-0.039,0.049,-0.0112));
#1840=CARTESIAN_POINT('',(-0.039,0.049,-0.0112));
#1841=CARTESIAN_POINT('',(-0.043,0.049,0.003));
#1842=CARTESIAN_POINT('',(-0.049,0.0132375491335946,0.003));
#1843=CARTESIAN_POINT('',(-0.049,0.049,0.002));
#1844=CARTESIAN_POINT('',(-0.049,-0.043,0.002));
#1845=CARTESIAN_POINT('',(-0.049,0.043,0.002));
#1846=CARTESIAN_POINT('',(-0.049,0.043,0.003));
#1847=CARTESIAN_POINT('',(-0.049,0.039,-0.0112));
#1848=CARTESIAN_POINT('',(-0.049,0.039,-0.0112));
#1849=CARTESIAN_POINT('',(-0.049,0.,-0.0112));
#1850=CARTESIAN_POINT('',(-0.049,-0.039,-0.0112));
#1851=CARTESIAN_POINT('',(-0.049,-0.039,-0.0112));
#1852=CARTESIAN_POINT('',(-0.049,-0.043,0.003));
#1853=CARTESIAN_POINT('',(0.049,0.0132375491335946,0.003));
#1854=CARTESIAN_POINT('',(0.049,0.0132375491335946,0.002));
#1855=CARTESIAN_POINT('',(0.049,0.043,0.002));
#1856=CARTESIAN_POINT('',(0.049,-0.043,0.002));
#1857=CARTESIAN_POINT('',(0.049,-0.043,0.));
#1858=CARTESIAN_POINT('',(0.049,-0.039,-0.0112));
#1859=CARTESIAN_POINT('',(0.049,-0.039,-0.0112));
#1860=CARTESIAN_POINT('',(0.049,0.0132375491335946,-0.0112));
#1861=CARTESIAN_POINT('',(0.049,0.039,-0.0112));
#1862=CARTESIAN_POINT('',(0.049,0.039,-0.0112));
#1863=CARTESIAN_POINT('',(0.049,0.043,0.002));
#1864=CARTESIAN_POINT('',(-2.48065457064684E-18,-0.049,0.003));
#1865=CARTESIAN_POINT('',(0.043,-0.049,0.002));
#1866=CARTESIAN_POINT('',(0.043,-0.049,0.002));
#1867=CARTESIAN_POINT('',(-0.049,-0.049,0.002));
#1868=CARTESIAN_POINT('',(-0.043,-0.049,0.002));
#1869=CARTESIAN_POINT('',(-0.043,-0.049,0.003));
#1870=CARTESIAN_POINT('',(-0.039,-0.049,-0.0112));
#1871=CARTESIAN_POINT('',(-0.039,-0.049,-0.0112));
#1872=CARTESIAN_POINT('',(-2.48065457064684E-18,-0.049,-0.0112));
#1873=CARTESIAN_POINT('',(0.039,-0.049,-0.0112));
#1874=CARTESIAN_POINT('',(0.039,-0.049,-0.0112));
#1875=CARTESIAN_POINT('',(-0.0475,0.039,-0.0112));
#1876=CARTESIAN_POINT('',(-0.046,0.039,-0.0112));
#1877=CARTESIAN_POINT('',(-0.046,0.039,-0.0112));
#1878=CARTESIAN_POINT('',(-0.0475,0.039,-0.0112));
#1879=CARTESIAN_POINT('',(-0.046,-6.93889390390723E-18,-0.0112));
#1880=CARTESIAN_POINT('',(-0.046,-0.039,-0.0112));
#1881=CARTESIAN_POINT('',(-0.046,-0.039,-0.0112));
#1882=CARTESIAN_POINT('',(-0.046,-6.93889390390723E-18,-0.0112));
#1883=CARTESIAN_POINT('',(-0.0475,-0.039,-0.0112));
#1884=CARTESIAN_POINT('',(-0.0475,-0.039,-0.0112));
#1885=CARTESIAN_POINT('',(0.,0.,-0.0112));
#1886=CARTESIAN_POINT('',(0.0475,-0.039,-0.0112));
#1887=CARTESIAN_POINT('',(0.046,-0.039,-0.0112));
#1888=CARTESIAN_POINT('',(0.046,-0.039,-0.0112));
#1889=CARTESIAN_POINT('',(0.0475,-0.039,-0.0112));
#1890=CARTESIAN_POINT('',(0.046,0.,-0.0112));
#1891=CARTESIAN_POINT('',(0.046,0.039,-0.0112));
#1892=CARTESIAN_POINT('',(0.046,0.039,-0.0112));
#1893=CARTESIAN_POINT('',(0.046,0.,-0.0112));
#1894=CARTESIAN_POINT('',(0.0475,0.039,-0.0112));
#1895=CARTESIAN_POINT('',(0.0475,0.039,-0.0112));
#1896=CARTESIAN_POINT('',(0.,0.,-0.0112));
#1897=CARTESIAN_POINT('',(-0.039,0.0475,-0.0112));
#1898=CARTESIAN_POINT('',(-0.039,0.0475,-0.0112));
#1899=CARTESIAN_POINT('',(0.039,0.0475,-0.0112));
#1900=CARTESIAN_POINT('',(0.039,0.0475,-0.0112));
#1901=CARTESIAN_POINT('',(0.,0.,-0.0112));
#1902=CARTESIAN_POINT('',(0.039,-0.0475,-0.0112));
#1903=CARTESIAN_POINT('',(0.039,-0.0475,-0.0112));
#1904=CARTESIAN_POINT('',(0.039,-0.046,-0.0112));
#1905=CARTESIAN_POINT('',(0.039,-0.046,-0.0112));
#1906=CARTESIAN_POINT('',(-0.039,-0.0475,-0.0112));
#1907=CARTESIAN_POINT('',(-0.039,-0.046,-0.0112));
#1908=CARTESIAN_POINT('',(-0.039,-0.046,-0.0112));
#1909=CARTESIAN_POINT('',(-0.039,-0.0475,-0.0112));
#1910=CARTESIAN_POINT('',(0.,-0.046,-0.0112));
#1911=CARTESIAN_POINT('',(0.,-0.046,-0.0112));
#1912=CARTESIAN_POINT('',(0.,0.,-0.0112));
#1913=CARTESIAN_POINT('',(0.0129299719846366,0.0668594700700039,-0.00304500000000022));
#1914=CARTESIAN_POINT('',(0.0129299719846366,0.0668594700700039,-0.00129500000000025));
#1915=CARTESIAN_POINT('',(0.0129299719846366,0.048,-0.00129500000000019));
#1916=CARTESIAN_POINT('',(0.0129299719846366,0.0424,-0.00129500000000019));
#1917=CARTESIAN_POINT('',(0.0129299719846366,0.048,-0.00304500000000016));
#1918=CARTESIAN_POINT('',(0.0146799719846366,0.048,-0.00304500000000016));
#1919=CARTESIAN_POINT('',(0.0146799719846366,0.0668594700700039,-0.00304500000000022));
#1920=CARTESIAN_POINT('',(0.0146799719846366,0.0424,-0.00304500000000019));
#1921=CARTESIAN_POINT('',(0.0129299719846366,0.0424,-0.00304500000000015));
#1922=CARTESIAN_POINT('',(0.0146799719846366,0.0668594700700039,-0.00680500000000017));
#1923=CARTESIAN_POINT('',(0.0146799719846366,0.048,-0.00635500000000015));
#1924=CARTESIAN_POINT('',(0.0146799719846366,0.048,-0.00635500000000015));
#1925=CARTESIAN_POINT('',(0.0146799719846366,0.0668594700700039,-0.0063550000000002));
#1926=CARTESIAN_POINT('',(0.0146799719846366,0.0424,-0.00635500000000018));
#1927=CARTESIAN_POINT('',(0.0146799719846366,0.0424,-0.00680500000000017));
#1928=CARTESIAN_POINT('',(0.0141799719846366,0.0668594700700039,-0.00129500000000025));
#1929=CARTESIAN_POINT('',(0.00648997198463676,0.0668594700700039,-0.00129500000000025));
#1930=CARTESIAN_POINT('',(0.00648997198463679,0.048,-0.00129500000000019));
#1931=CARTESIAN_POINT('',(0.00648997198463677,0.0424,-0.00129500000000018));
#1932=CARTESIAN_POINT('',(0.0129299719846366,0.048,-0.00129500000000019));
#1933=CARTESIAN_POINT('',(6.0389247270484E-19,0.0424,-0.00129500000000019));
#1934=CARTESIAN_POINT('',(0.00648997198463676,0.0668594700700039,-0.00304500000000022));
#1935=CARTESIAN_POINT('',(0.00473997198463679,0.0668594700700039,-0.00304500000000022));
#1936=CARTESIAN_POINT('',(0.00473997198463681,0.048,-0.00304500000000016));
#1937=CARTESIAN_POINT('',(0.00473997198463682,0.0424,-0.00304500000000019));
#1938=CARTESIAN_POINT('',(0.00648997198463679,0.048,-0.00304500000000016));
#1939=CARTESIAN_POINT('',(0.00648997198463679,0.0424,-0.00304500000000015));
#1940=CARTESIAN_POINT('',(0.00473997198463679,0.0668594700700039,-0.00680500000000017));
#1941=CARTESIAN_POINT('',(0.00473997198463679,0.0668594700700039,-0.0063550000000002));
#1942=CARTESIAN_POINT('',(0.00473997198463681,0.048,-0.00635500000000015));
#1943=CARTESIAN_POINT('',(0.00473997198463681,0.0424,-0.00635500000000018));
#1944=CARTESIAN_POINT('',(0.00473997198463682,0.048,-0.00304500000000019));
#1945=CARTESIAN_POINT('',(0.00473997198463682,0.0424,-0.00680500000000017));
#1946=CARTESIAN_POINT('',(0.00648997198463676,0.0668594700700039,-0.0063550000000002));
#1947=CARTESIAN_POINT('',(0.00648997198463676,0.0668594700700039,-0.00810500000000018));
#1948=CARTESIAN_POINT('',(0.00648997198463679,0.048,-0.00810500000000012));
#1949=CARTESIAN_POINT('',(0.00648997198463678,0.0424,-0.00810500000000011));
#1950=CARTESIAN_POINT('',(0.00648997198463679,0.048,-0.00635500000000015));
#1951=CARTESIAN_POINT('',(0.00648997198463679,0.0424,-0.00635500000000014));
#1952=CARTESIAN_POINT('',(0.0141799719846366,0.0668594700700039,-0.00810500000000017));
#1953=CARTESIAN_POINT('',(0.0129299719846366,0.0668594700700039,-0.00810500000000018));
#1954=CARTESIAN_POINT('',(0.0129299719846366,0.048,-0.00810500000000012));
#1955=CARTESIAN_POINT('',(0.0129299719846366,0.0424,-0.00810500000000012));
#1956=CARTESIAN_POINT('',(0.00648997198463678,0.048,-0.00810500000000011));
#1957=CARTESIAN_POINT('',(6.29070435460017E-19,0.0424,-0.00810500000000011));
#1958=CARTESIAN_POINT('',(0.0129299719846366,0.0668594700700039,-0.0063550000000002));
#1959=CARTESIAN_POINT('',(0.0129299719846366,0.048,-0.00635500000000015));
#1960=CARTESIAN_POINT('',(0.0129299719846366,0.0424,-0.00635500000000014));
#1961=CARTESIAN_POINT('',(0.00648997198463677,0.0424,-0.00304500000000022));
#1962=CARTESIAN_POINT('',(0.00344497198463663,0.0424,-0.00304500000000022));
#1963=CARTESIAN_POINT('',(0.00344497198463663,0.0424,-0.00304500000000022));
#1964=CARTESIAN_POINT('',(0.00648997198463677,0.0424,-0.00304500000000022));
#1965=CARTESIAN_POINT('',(0.00344497198463663,0.0424,-0.00470000000000021));
#1966=CARTESIAN_POINT('',(0.0034449719846366,0.0424,-0.0063550000000002));
#1967=CARTESIAN_POINT('',(0.0034449719846366,0.0424,-0.0063550000000002));
#1968=CARTESIAN_POINT('',(0.00344497198463663,0.0424,-0.00470000000000021));
#1969=CARTESIAN_POINT('',(0.00648997198463677,0.0424,-0.0063550000000002));
#1970=CARTESIAN_POINT('',(0.00648997198463677,0.0424,-0.0094000000000003));
#1971=CARTESIAN_POINT('',(0.00648997198463677,0.0424,-0.0094000000000003));
#1972=CARTESIAN_POINT('',(0.00648997198463677,0.0424,-0.0063550000000002));
#1973=CARTESIAN_POINT('',(0.00970997198463668,0.0424,-0.0094000000000003));
#1974=CARTESIAN_POINT('',(0.0129299719846366,0.0424,-0.0094000000000003));
#1975=CARTESIAN_POINT('',(0.0129299719846366,0.0424,-0.0094000000000003));
#1976=CARTESIAN_POINT('',(0.00970997198463668,0.0424,-0.0094000000000003));
#1977=CARTESIAN_POINT('',(0.0129299719846366,0.0424,-0.0063550000000002));
#1978=CARTESIAN_POINT('',(0.0159749719846367,0.0424,-0.0063550000000002));
#1979=CARTESIAN_POINT('',(0.0159749719846367,0.0424,-0.0063550000000002));
#1980=CARTESIAN_POINT('',(0.0129299719846366,0.0424,-0.0063550000000002));
#1981=CARTESIAN_POINT('',(0.0159749719846368,0.0424,-0.00470000000000021));
#1982=CARTESIAN_POINT('',(0.0159749719846368,0.0424,-0.00304500000000022));
#1983=CARTESIAN_POINT('',(0.0159749719846368,0.0424,-0.00304500000000022));
#1984=CARTESIAN_POINT('',(0.0159749719846368,0.0424,-0.00470000000000021));
#1985=CARTESIAN_POINT('',(0.0129299719846366,0.0424,-0.00304500000000022));
#1986=CARTESIAN_POINT('',(0.0129299719846366,0.0424,-0.00304500000000022));
#1987=CARTESIAN_POINT('',(-6.04929212135503E-19,0.0424,-0.0056));
#1988=CARTESIAN_POINT('',(0.00648997198463679,0.048,-0.00304500000000016));
#1989=CARTESIAN_POINT('',(0.00373997198463681,0.048,-0.00304500000000016));
#1990=CARTESIAN_POINT('',(0.00648997198463679,0.048,-0.000295000000000186));
#1991=CARTESIAN_POINT('',(0.0141799719846366,0.048,-0.000295000000000193));
#1992=CARTESIAN_POINT('',(0.0129299719846366,0.048,-0.000295000000000193));
#1993=CARTESIAN_POINT('',(0.00373997198463682,0.048,-0.00680500000000017));
#1994=CARTESIAN_POINT('',(0.00373997198463682,0.048,-0.00635500000000015));
#1995=CARTESIAN_POINT('',(0.0129299719846366,0.048,-0.00304500000000016));
#1996=CARTESIAN_POINT('',(0.0156799719846366,0.048,-0.00304500000000016));
#1997=CARTESIAN_POINT('',(0.00648997198463679,0.048,-0.00635500000000015));
#1998=CARTESIAN_POINT('',(0.00648997198463679,0.048,-0.00910500000000012));
#1999=CARTESIAN_POINT('',(0.0156799719846366,0.048,-0.00680500000000017));
#2000=CARTESIAN_POINT('',(0.0156799719846366,0.048,-0.00635500000000015));
#2001=CARTESIAN_POINT('',(0.0141799719846366,0.048,-0.00910500000000011));
#2002=CARTESIAN_POINT('',(0.0129299719846366,0.048,-0.00910500000000011));
#2003=CARTESIAN_POINT('',(0.0129299719846366,0.048,-0.00635500000000015));
#2004=CARTESIAN_POINT('',(-2.48065457064684E-18,-0.049,0.002));
#2005=CARTESIAN_POINT('',(0.043,-0.043,0.008));
#2006=CARTESIAN_POINT('',(-0.043,-0.043,0.008));
#2007=CARTESIAN_POINT('',(0.049,0.0132375491335946,0.002));
#2008=CARTESIAN_POINT('',(0.043,-0.043,0.008));
#2009=CARTESIAN_POINT('',(0.043,0.043,0.008));
#2010=CARTESIAN_POINT('',(-0.048,0.00426776695296635,0.003));
#2011=CARTESIAN_POINT('',(-0.043,0.043,0.008));
#2012=CARTESIAN_POINT('',(-0.043,-0.043,0.008));
#2013=CARTESIAN_POINT('',(0.,0.048,0.003));
#2014=CARTESIAN_POINT('',(0.043,0.043,0.008));
#2015=CARTESIAN_POINT('',(-0.043,0.043,0.008));
#2016=CARTESIAN_POINT('',(-0.0445,-0.0445,0.0012));
#2017=CARTESIAN_POINT('',(-0.0445,-0.0445,0.0012));
#2018=CARTESIAN_POINT('',(-0.0415,-0.0445,0.0012));
#2019=CARTESIAN_POINT('',(0.,0.,0.0012));
#2020=CARTESIAN_POINT('',(-0.0445,-0.0445,0.0012));
#2021=CARTESIAN_POINT('',(-0.0428,-0.0445,0.0012));
#2022=CARTESIAN_POINT('',(-0.0445,0.0445,0.0012));
#2023=CARTESIAN_POINT('',(-0.0445,0.0445,0.0012));
#2024=CARTESIAN_POINT('',(-0.0415,0.0445,0.0012));
#2025=CARTESIAN_POINT('',(0.,0.,0.0012));
#2026=CARTESIAN_POINT('',(-0.0445,0.0445,0.0012));
#2027=CARTESIAN_POINT('',(-0.0428,0.0445,0.0012));
#2028=CARTESIAN_POINT('',(0.0445,0.0445,0.0012));
#2029=CARTESIAN_POINT('',(0.0445,0.0445,0.0012));
#2030=CARTESIAN_POINT('',(0.0475,0.0445,0.0012));
#2031=CARTESIAN_POINT('',(0.,0.,0.0012));
#2032=CARTESIAN_POINT('',(0.0445,0.0445,0.0012));
#2033=CARTESIAN_POINT('',(0.0462,0.0445,0.0012));
#2034=CARTESIAN_POINT('',(0.0445,-0.0445,0.0012));
#2035=CARTESIAN_POINT('',(0.0445,-0.0445,0.0012));
#2036=CARTESIAN_POINT('',(0.0475,-0.0445,0.0012));
#2037=CARTESIAN_POINT('',(0.,0.,0.0012));
#2038=CARTESIAN_POINT('',(0.0445,-0.0445,0.0012));
#2039=CARTESIAN_POINT('',(0.0462,-0.0445,0.0012));
#2040=CARTESIAN_POINT('',(0.0445,-0.0445,-0.022));
#2041=CARTESIAN_POINT('',(0.0445,0.0445,-0.022));
#2042=CARTESIAN_POINT('',(-0.0445,0.0445,-0.022));
#2043=CARTESIAN_POINT('',(-0.0445,-0.0445,-0.022));
#2044=CARTESIAN_POINT('',(0.043,-0.043,0.003));
#2045=CARTESIAN_POINT('',(0.043,0.043,0.003));
#2046=CARTESIAN_POINT('',(-0.043,0.043,0.003));
#2047=CARTESIAN_POINT('',(-0.043,-0.043,0.003));
#2048=MECHANICAL_DESIGN_GEOMETRIC_PRESENTATION_REPRESENTATION('',(#1177),#2049);
#2049=(
GEOMETRIC_REPRESENTATION_CONTEXT(3)
GLOBAL_UNCERTAINTY_ASSIGNED_CONTEXT((#2050))
GLOBAL_UNIT_ASSIGNED_CONTEXT((#2053,#2052,#2051))
REPRESENTATION_CONTEXT('Base','TOP_LEVEL_ASSEMBLY_PART')
);
#2050=UNCERTAINTY_MEASURE_WITH_UNIT(LENGTH_MEASURE(1.E-08),#2053,'DISTANCE_ACCURACY_VALUE','Maximum Tolerance applied to model');
#2051=(
NAMED_UNIT(*)
SI_UNIT($,.STERADIAN.)
SOLID_ANGLE_UNIT()
);
#2052=(
NAMED_UNIT(*)
PLANE_ANGLE_UNIT()
SI_UNIT($,.RADIAN.)
);
#2053=(
LENGTH_UNIT()
NAMED_UNIT(*)
SI_UNIT($,.METRE.)
);
#2054=PRODUCT_DEFINITION_SHAPE('','',#2055);
#2055=PRODUCT_DEFINITION('','',#2057,#2056);
#2056=PRODUCT_DEFINITION_CONTEXT('',#2063,'design');
#2057=PRODUCT_DEFINITION_FORMATION_WITH_SPECIFIED_SOURCE('','',#2059,.NOT_KNOWN.);
#2058=PRODUCT_RELATED_PRODUCT_CATEGORY('','',(#2059));
#2059=PRODUCT('Base','Base','Base',(#2061));
#2060=PRODUCT_CATEGORY('','');
#2061=PRODUCT_CONTEXT('',#2063,'mechanical');
#2062=APPLICATION_PROTOCOL_DEFINITION('international standard','ap242_managed_model_based_3d_engineering',2020,#2063);
#2063=APPLICATION_CONTEXT('managed model based 3d engineering');
ENDSEC;
END-ISO-10303-21;
