ISO-10303-21;
HEADER;
/*Generated by software containing ST-Developer
 * from STEP Tools, Inc. (www.steptools.com) 
 */
/*OPTION: using custom renumber hook */
/*description */
/*implementation_level */
FILE_DESCRIPTION(('STEP AP242 Edition 2','STEP AP242 Edition 2''CAx-IF Rec.Pracs.---Representation and Presentation of Product Manufa
cturing Information (PMI)---4.0---2014-10-13','STEP AP242 Edition 2''CAx-IF Rec.Pracs.---Representation and Presentation of Product Manufa
cturing Information (PMI)---4.0---2014-10-13''CAx-IF Rec.Pracs.---3D Tessellated Geometry---0.4---2014-09-14','STEP AP242 Edition 2''CAx-IF Rec.Pracs.---Representation and Presentation of Product Manufa
cturing Information (PMI)---4.0---2014-10-13''CAx-IF Rec.Pracs.---3D Tessellated Geometry---0.4---2014-09-14''2;1','STEP AP242 Edition 2''CAx-IF Rec.Pracs.---Representation and Presentation of Product Manufa
cturing Information (PMI)---4.0---2014-10-13''CAx-IF Rec.Pracs.---3D Tessellated Geometry---0.4---2014-09-14''2;1''CAx-IF Rec.Pracs.---User Defined Attributes---1.5---2016-08-15'),'2;1');
/*name */
/*time_stamp */
/*author */
/*organization */
/*preprocessor_version */
/*originating_system */
/*authorisation */
FILE_NAME('/vol/tmp/translate-8411242310923226395/Cushion (TPU).step','2026-02-28T05:13:55',(''),(''),'ST-DEVELOPER v20','ONSHAPE BY PTC INC, 1.211','  ');
FILE_SCHEMA(('AP242_MANAGED_MODEL_BASED_3D_ENGINEERING_MIM_LF { 1 0 10303 442 3 1 4 }'));
ENDSEC;
DATA;
#10=SHAPE_REPRESENTATION_RELATIONSHIP('','',#393,#11);
#11=ADVANCED_BREP_SHAPE_REPRESENTATION('',(#391),#655);
#12=CYLINDRICAL_SURFACE('',#423,0.001);
#13=CYLINDRICAL_SURFACE('',#424,0.001);
#14=CYLINDRICAL_SURFACE('',#425,0.001);
#15=CYLINDRICAL_SURFACE('',#426,0.001);
#16=CYLINDRICAL_SURFACE('',#427,0.001);
#17=CYLINDRICAL_SURFACE('',#428,0.001);
#18=CYLINDRICAL_SURFACE('',#429,0.001);
#19=CYLINDRICAL_SURFACE('',#430,0.001);
#20=CIRCLE('',#398,0.001);
#21=CIRCLE('',#399,0.001);
#22=CIRCLE('',#400,0.001);
#23=CIRCLE('',#401,0.001);
#24=CIRCLE('',#402,0.001);
#25=CIRCLE('',#403,0.001);
#26=CIRCLE('',#409,0.001);
#27=CIRCLE('',#410,0.001);
#28=CIRCLE('',#411,0.001);
#29=CIRCLE('',#412,0.001);
#30=CIRCLE('',#413,0.001);
#31=CIRCLE('',#414,0.001);
#32=CIRCLE('',#416,0.001);
#33=CIRCLE('',#417,0.001);
#34=CIRCLE('',#420,0.001);
#35=CIRCLE('',#421,0.001);
#36=ORIENTED_EDGE('',*,*,#144,.F.);
#37=ORIENTED_EDGE('',*,*,#145,.T.);
#38=ORIENTED_EDGE('',*,*,#146,.T.);
#39=ORIENTED_EDGE('',*,*,#147,.T.);
#40=ORIENTED_EDGE('',*,*,#148,.F.);
#41=ORIENTED_EDGE('',*,*,#149,.T.);
#42=ORIENTED_EDGE('',*,*,#150,.T.);
#43=ORIENTED_EDGE('',*,*,#151,.T.);
#44=ORIENTED_EDGE('',*,*,#152,.T.);
#45=ORIENTED_EDGE('',*,*,#153,.T.);
#46=ORIENTED_EDGE('',*,*,#154,.F.);
#47=ORIENTED_EDGE('',*,*,#155,.F.);
#48=ORIENTED_EDGE('',*,*,#156,.T.);
#49=ORIENTED_EDGE('',*,*,#157,.T.);
#50=ORIENTED_EDGE('',*,*,#144,.T.);
#51=ORIENTED_EDGE('',*,*,#158,.T.);
#52=ORIENTED_EDGE('',*,*,#159,.T.);
#53=ORIENTED_EDGE('',*,*,#160,.T.);
#54=ORIENTED_EDGE('',*,*,#161,.F.);
#55=ORIENTED_EDGE('',*,*,#162,.T.);
#56=ORIENTED_EDGE('',*,*,#163,.F.);
#57=ORIENTED_EDGE('',*,*,#164,.T.);
#58=ORIENTED_EDGE('',*,*,#165,.F.);
#59=ORIENTED_EDGE('',*,*,#166,.T.);
#60=ORIENTED_EDGE('',*,*,#163,.T.);
#61=ORIENTED_EDGE('',*,*,#167,.T.);
#62=ORIENTED_EDGE('',*,*,#168,.T.);
#63=ORIENTED_EDGE('',*,*,#169,.T.);
#64=ORIENTED_EDGE('',*,*,#152,.F.);
#65=ORIENTED_EDGE('',*,*,#170,.T.);
#66=ORIENTED_EDGE('',*,*,#159,.F.);
#67=ORIENTED_EDGE('',*,*,#171,.T.);
#68=ORIENTED_EDGE('',*,*,#172,.T.);
#69=ORIENTED_EDGE('',*,*,#173,.T.);
#70=ORIENTED_EDGE('',*,*,#174,.F.);
#71=ORIENTED_EDGE('',*,*,#175,.T.);
#72=ORIENTED_EDGE('',*,*,#161,.T.);
#73=ORIENTED_EDGE('',*,*,#176,.T.);
#74=ORIENTED_EDGE('',*,*,#177,.T.);
#75=ORIENTED_EDGE('',*,*,#178,.T.);
#76=ORIENTED_EDGE('',*,*,#168,.F.);
#77=ORIENTED_EDGE('',*,*,#179,.T.);
#78=ORIENTED_EDGE('',*,*,#165,.T.);
#79=ORIENTED_EDGE('',*,*,#180,.T.);
#80=ORIENTED_EDGE('',*,*,#174,.T.);
#81=ORIENTED_EDGE('',*,*,#181,.T.);
#82=ORIENTED_EDGE('',*,*,#172,.F.);
#83=ORIENTED_EDGE('',*,*,#182,.T.);
#84=ORIENTED_EDGE('',*,*,#146,.F.);
#85=ORIENTED_EDGE('',*,*,#183,.T.);
#86=ORIENTED_EDGE('',*,*,#184,.F.);
#87=ORIENTED_EDGE('',*,*,#185,.F.);
#88=ORIENTED_EDGE('',*,*,#186,.F.);
#89=ORIENTED_EDGE('',*,*,#187,.T.);
#90=ORIENTED_EDGE('',*,*,#148,.T.);
#91=ORIENTED_EDGE('',*,*,#188,.T.);
#92=ORIENTED_EDGE('',*,*,#189,.F.);
#93=ORIENTED_EDGE('',*,*,#184,.T.);
#94=ORIENTED_EDGE('',*,*,#190,.T.);
#95=ORIENTED_EDGE('',*,*,#156,.F.);
#96=ORIENTED_EDGE('',*,*,#191,.F.);
#97=ORIENTED_EDGE('',*,*,#192,.T.);
#98=ORIENTED_EDGE('',*,*,#186,.T.);
#99=ORIENTED_EDGE('',*,*,#155,.T.);
#100=ORIENTED_EDGE('',*,*,#150,.F.);
#101=ORIENTED_EDGE('',*,*,#193,.T.);
#102=ORIENTED_EDGE('',*,*,#191,.T.);
#103=ORIENTED_EDGE('',*,*,#154,.T.);
#104=ORIENTED_EDGE('',*,*,#194,.T.);
#105=ORIENTED_EDGE('',*,*,#177,.F.);
#106=ORIENTED_EDGE('',*,*,#195,.T.);
#107=ORIENTED_EDGE('',*,*,#196,.T.);
#108=ORIENTED_EDGE('',*,*,#189,.T.);
#109=ORIENTED_EDGE('',*,*,#197,.T.);
#110=ORIENTED_EDGE('',*,*,#195,.F.);
#111=ORIENTED_EDGE('',*,*,#185,.T.);
#112=ORIENTED_EDGE('',*,*,#187,.F.);
#113=ORIENTED_EDGE('',*,*,#192,.F.);
#114=ORIENTED_EDGE('',*,*,#193,.F.);
#115=ORIENTED_EDGE('',*,*,#149,.F.);
#116=ORIENTED_EDGE('',*,*,#196,.F.);
#117=ORIENTED_EDGE('',*,*,#197,.F.);
#118=ORIENTED_EDGE('',*,*,#188,.F.);
#119=ORIENTED_EDGE('',*,*,#151,.F.);
#120=ORIENTED_EDGE('',*,*,#178,.F.);
#121=ORIENTED_EDGE('',*,*,#194,.F.);
#122=ORIENTED_EDGE('',*,*,#153,.F.);
#123=ORIENTED_EDGE('',*,*,#169,.F.);
#124=ORIENTED_EDGE('',*,*,#183,.F.);
#125=ORIENTED_EDGE('',*,*,#145,.F.);
#126=ORIENTED_EDGE('',*,*,#157,.F.);
#127=ORIENTED_EDGE('',*,*,#190,.F.);
#128=ORIENTED_EDGE('',*,*,#158,.F.);
#129=ORIENTED_EDGE('',*,*,#147,.F.);
#130=ORIENTED_EDGE('',*,*,#182,.F.);
#131=ORIENTED_EDGE('',*,*,#171,.F.);
#132=ORIENTED_EDGE('',*,*,#164,.F.);
#133=ORIENTED_EDGE('',*,*,#166,.F.);
#134=ORIENTED_EDGE('',*,*,#179,.F.);
#135=ORIENTED_EDGE('',*,*,#170,.F.);
#136=ORIENTED_EDGE('',*,*,#162,.F.);
#137=ORIENTED_EDGE('',*,*,#175,.F.);
#138=ORIENTED_EDGE('',*,*,#180,.F.);
#139=ORIENTED_EDGE('',*,*,#167,.F.);
#140=ORIENTED_EDGE('',*,*,#160,.F.);
#141=ORIENTED_EDGE('',*,*,#173,.F.);
#142=ORIENTED_EDGE('',*,*,#181,.F.);
#143=ORIENTED_EDGE('',*,*,#176,.F.);
#144=EDGE_CURVE('',#198,#199,#234,.T.);
#145=EDGE_CURVE('',#198,#200,#235,.F.);
#146=EDGE_CURVE('',#200,#201,#236,.T.);
#147=EDGE_CURVE('',#201,#199,#237,.F.);
#148=EDGE_CURVE('',#202,#203,#238,.T.);
#149=EDGE_CURVE('',#202,#204,#239,.T.);
#150=EDGE_CURVE('',#204,#205,#240,.T.);
#151=EDGE_CURVE('',#205,#203,#241,.T.);
#152=EDGE_CURVE('',#206,#207,#242,.T.);
#153=EDGE_CURVE('',#207,#208,#20,.T.);
#154=EDGE_CURVE('',#209,#208,#243,.T.);
#155=EDGE_CURVE('',#210,#209,#244,.T.);
#156=EDGE_CURVE('',#210,#211,#245,.T.);
#157=EDGE_CURVE('',#211,#198,#21,.T.);
#158=EDGE_CURVE('',#199,#212,#22,.T.);
#159=EDGE_CURVE('',#212,#213,#246,.T.);
#160=EDGE_CURVE('',#213,#214,#23,.T.);
#161=EDGE_CURVE('',#215,#214,#247,.T.);
#162=EDGE_CURVE('',#215,#216,#24,.T.);
#163=EDGE_CURVE('',#217,#216,#248,.T.);
#164=EDGE_CURVE('',#217,#206,#25,.T.);
#165=EDGE_CURVE('',#218,#219,#249,.T.);
#166=EDGE_CURVE('',#218,#217,#250,.F.);
#167=EDGE_CURVE('',#216,#219,#251,.T.);
#168=EDGE_CURVE('',#220,#221,#252,.T.);
#169=EDGE_CURVE('',#221,#207,#253,.T.);
#170=EDGE_CURVE('',#206,#220,#254,.T.);
#171=EDGE_CURVE('',#212,#222,#255,.T.);
#172=EDGE_CURVE('',#222,#223,#256,.T.);
#173=EDGE_CURVE('',#223,#213,#257,.F.);
#174=EDGE_CURVE('',#224,#225,#258,.T.);
#175=EDGE_CURVE('',#224,#215,#259,.F.);
#176=EDGE_CURVE('',#214,#225,#260,.T.);
#177=EDGE_CURVE('',#226,#227,#261,.T.);
#178=EDGE_CURVE('',#227,#221,#26,.F.);
#179=EDGE_CURVE('',#220,#218,#27,.F.);
#180=EDGE_CURVE('',#219,#224,#28,.F.);
#181=EDGE_CURVE('',#225,#223,#29,.F.);
#182=EDGE_CURVE('',#222,#201,#30,.F.);
#183=EDGE_CURVE('',#200,#228,#31,.F.);
#184=EDGE_CURVE('',#229,#228,#262,.T.);
#185=EDGE_CURVE('',#226,#229,#263,.T.);
#186=EDGE_CURVE('',#230,#210,#264,.T.);
#187=EDGE_CURVE('',#230,#202,#32,.T.);
#188=EDGE_CURVE('',#203,#231,#33,.F.);
#189=EDGE_CURVE('',#229,#231,#265,.T.);
#190=EDGE_CURVE('',#228,#211,#266,.T.);
#191=EDGE_CURVE('',#232,#209,#267,.T.);
#192=EDGE_CURVE('',#232,#230,#268,.F.);
#193=EDGE_CURVE('',#204,#232,#34,.F.);
#194=EDGE_CURVE('',#208,#227,#269,.F.);
#195=EDGE_CURVE('',#226,#233,#270,.T.);
#196=EDGE_CURVE('',#233,#205,#35,.T.);
#197=EDGE_CURVE('',#231,#233,#271,.F.);
#198=VERTEX_POINT('',#546);
#199=VERTEX_POINT('',#547);
#200=VERTEX_POINT('',#549);
#201=VERTEX_POINT('',#551);
#202=VERTEX_POINT('',#555);
#203=VERTEX_POINT('',#556);
#204=VERTEX_POINT('',#558);
#205=VERTEX_POINT('',#560);
#206=VERTEX_POINT('',#564);
#207=VERTEX_POINT('',#565);
#208=VERTEX_POINT('',#567);
#209=VERTEX_POINT('',#569);
#210=VERTEX_POINT('',#571);
#211=VERTEX_POINT('',#573);
#212=VERTEX_POINT('',#576);
#213=VERTEX_POINT('',#578);
#214=VERTEX_POINT('',#580);
#215=VERTEX_POINT('',#582);
#216=VERTEX_POINT('',#584);
#217=VERTEX_POINT('',#586);
#218=VERTEX_POINT('',#590);
#219=VERTEX_POINT('',#591);
#220=VERTEX_POINT('',#596);
#221=VERTEX_POINT('',#597);
#222=VERTEX_POINT('',#602);
#223=VERTEX_POINT('',#604);
#224=VERTEX_POINT('',#608);
#225=VERTEX_POINT('',#609);
#226=VERTEX_POINT('',#614);
#227=VERTEX_POINT('',#615);
#228=VERTEX_POINT('',#622);
#229=VERTEX_POINT('',#624);
#230=VERTEX_POINT('',#628);
#231=VERTEX_POINT('',#631);
#232=VERTEX_POINT('',#636);
#233=VERTEX_POINT('',#642);
#234=LINE('',#545,#272);
#235=LINE('',#548,#273);
#236=LINE('',#550,#274);
#237=LINE('',#552,#275);
#238=LINE('',#554,#276);
#239=LINE('',#557,#277);
#240=LINE('',#559,#278);
#241=LINE('',#561,#279);
#242=LINE('',#563,#280);
#243=LINE('',#568,#281);
#244=LINE('',#570,#282);
#245=LINE('',#572,#283);
#246=LINE('',#577,#284);
#247=LINE('',#581,#285);
#248=LINE('',#585,#286);
#249=LINE('',#589,#287);
#250=LINE('',#592,#288);
#251=LINE('',#593,#289);
#252=LINE('',#595,#290);
#253=LINE('',#598,#291);
#254=LINE('',#599,#292);
#255=LINE('',#601,#293);
#256=LINE('',#603,#294);
#257=LINE('',#605,#295);
#258=LINE('',#607,#296);
#259=LINE('',#610,#297);
#260=LINE('',#611,#298);
#261=LINE('',#613,#299);
#262=LINE('',#623,#300);
#263=LINE('',#625,#301);
#264=LINE('',#627,#302);
#265=LINE('',#632,#303);
#266=LINE('',#633,#304);
#267=LINE('',#635,#305);
#268=LINE('',#637,#306);
#269=LINE('',#640,#307);
#270=LINE('',#641,#308);
#271=LINE('',#645,#309);
#272=VECTOR('',#435,1.);
#273=VECTOR('',#436,1.);
#274=VECTOR('',#437,1.);
#275=VECTOR('',#438,1.);
#276=VECTOR('',#441,1.);
#277=VECTOR('',#442,1.);
#278=VECTOR('',#443,1.);
#279=VECTOR('',#444,1.);
#280=VECTOR('',#447,1.);
#281=VECTOR('',#450,1.);
#282=VECTOR('',#451,1.);
#283=VECTOR('',#452,1.);
#284=VECTOR('',#457,1.);
#285=VECTOR('',#460,1.);
#286=VECTOR('',#463,1.);
#287=VECTOR('',#468,1.);
#288=VECTOR('',#469,1.);
#289=VECTOR('',#470,1.);
#290=VECTOR('',#473,1.);
#291=VECTOR('',#474,1.);
#292=VECTOR('',#475,1.);
#293=VECTOR('',#478,1.);
#294=VECTOR('',#479,1.);
#295=VECTOR('',#480,1.);
#296=VECTOR('',#483,1.);
#297=VECTOR('',#484,1.);
#298=VECTOR('',#485,1.);
#299=VECTOR('',#488,1.);
#300=VECTOR('',#501,1.);
#301=VECTOR('',#502,1.);
#302=VECTOR('',#505,1.);
#303=VECTOR('',#510,1.);
#304=VECTOR('',#511,1.);
#305=VECTOR('',#514,1.);
#306=VECTOR('',#515,1.);
#307=VECTOR('',#520,1.);
#308=VECTOR('',#521,1.);
#309=VECTOR('',#526,1.);
#310=EDGE_LOOP('',(#36,#37,#38,#39));
#311=EDGE_LOOP('',(#40,#41,#42,#43));
#312=EDGE_LOOP('',(#44,#45,#46,#47,#48,#49,#50,#51,#52,#53,#54,#55,#56,#57));
#313=EDGE_LOOP('',(#58,#59,#60,#61));
#314=EDGE_LOOP('',(#62,#63,#64,#65));
#315=EDGE_LOOP('',(#66,#67,#68,#69));
#316=EDGE_LOOP('',(#70,#71,#72,#73));
#317=EDGE_LOOP('',(#74,#75,#76,#77,#78,#79,#80,#81,#82,#83,#84,#85,#86,#87));
#318=EDGE_LOOP('',(#88,#89,#90,#91,#92,#93,#94,#95));
#319=EDGE_LOOP('',(#96,#97,#98,#99));
#320=EDGE_LOOP('',(#100,#101,#102,#103,#104,#105,#106,#107));
#321=EDGE_LOOP('',(#108,#109,#110,#111));
#322=EDGE_LOOP('',(#112,#113,#114,#115));
#323=EDGE_LOOP('',(#116,#117,#118,#119));
#324=EDGE_LOOP('',(#120,#121,#122,#123));
#325=EDGE_LOOP('',(#124,#125,#126,#127));
#326=EDGE_LOOP('',(#128,#129,#130,#131));
#327=EDGE_LOOP('',(#132,#133,#134,#135));
#328=EDGE_LOOP('',(#136,#137,#138,#139));
#329=EDGE_LOOP('',(#140,#141,#142,#143));
#330=FACE_BOUND('',#310,.T.);
#331=FACE_BOUND('',#311,.T.);
#332=FACE_BOUND('',#312,.T.);
#333=FACE_BOUND('',#313,.T.);
#334=FACE_BOUND('',#314,.T.);
#335=FACE_BOUND('',#315,.T.);
#336=FACE_BOUND('',#316,.T.);
#337=FACE_BOUND('',#317,.T.);
#338=FACE_BOUND('',#318,.T.);
#339=FACE_BOUND('',#319,.T.);
#340=FACE_BOUND('',#320,.T.);
#341=FACE_BOUND('',#321,.T.);
#342=FACE_BOUND('',#322,.T.);
#343=FACE_BOUND('',#323,.T.);
#344=FACE_BOUND('',#324,.T.);
#345=FACE_BOUND('',#325,.T.);
#346=FACE_BOUND('',#326,.T.);
#347=FACE_BOUND('',#327,.T.);
#348=FACE_BOUND('',#328,.T.);
#349=FACE_BOUND('',#329,.T.);
#350=PLANE('',#395);
#351=PLANE('',#396);
#352=PLANE('',#397);
#353=PLANE('',#404);
#354=PLANE('',#405);
#355=PLANE('',#406);
#356=PLANE('',#407);
#357=PLANE('',#408);
#358=PLANE('',#415);
#359=PLANE('',#418);
#360=PLANE('',#419);
#361=PLANE('',#422);
#362=ADVANCED_FACE('',(#330),#350,.F.);
#363=ADVANCED_FACE('',(#331),#351,.T.);
#364=ADVANCED_FACE('',(#332),#352,.T.);
#365=ADVANCED_FACE('',(#333),#353,.T.);
#366=ADVANCED_FACE('',(#334),#354,.F.);
#367=ADVANCED_FACE('',(#335),#355,.F.);
#368=ADVANCED_FACE('',(#336),#356,.T.);
#369=ADVANCED_FACE('',(#337),#357,.F.);
#370=ADVANCED_FACE('',(#338),#358,.T.);
#371=ADVANCED_FACE('',(#339),#359,.F.);
#372=ADVANCED_FACE('',(#340),#360,.F.);
#373=ADVANCED_FACE('',(#341),#361,.T.);
#374=ADVANCED_FACE('',(#342),#12,.F.);
#375=ADVANCED_FACE('',(#343),#13,.T.);
#376=ADVANCED_FACE('',(#344),#14,.T.);
#377=ADVANCED_FACE('',(#345),#15,.T.);
#378=ADVANCED_FACE('',(#346),#16,.T.);
#379=ADVANCED_FACE('',(#347),#17,.T.);
#380=ADVANCED_FACE('',(#348),#18,.T.);
#381=ADVANCED_FACE('',(#349),#19,.T.);
#382=CLOSED_SHELL('',(#362,#363,#364,#365,#366,#367,#368,#369,#370,#371,#372,#373,#374,#375,#376,#377,#378,#379,#380,#381));
#383=STYLED_ITEM('',(#384),#391);
#384=PRESENTATION_STYLE_ASSIGNMENT((#385));
#385=SURFACE_STYLE_USAGE(.BOTH.,#386);
#386=SURFACE_SIDE_STYLE('',(#387));
#387=SURFACE_STYLE_FILL_AREA(#388);
#388=FILL_AREA_STYLE('',(#389));
#389=FILL_AREA_STYLE_COLOUR('',#390);
#390=COLOUR_RGB('',0.764705882352941,0.545098039215686,0.803921568627451);
#391=MANIFOLD_SOLID_BREP('Part 1',#382);
#392=SHAPE_DEFINITION_REPRESENTATION(#660,#393);
#393=SHAPE_REPRESENTATION('Part 1',(#394),#655);
#394=AXIS2_PLACEMENT_3D('',#543,#431,#432);
#395=AXIS2_PLACEMENT_3D('',#544,#433,#434);
#396=AXIS2_PLACEMENT_3D('',#553,#439,#440);
#397=AXIS2_PLACEMENT_3D('',#562,#445,#446);
#398=AXIS2_PLACEMENT_3D('',#566,#448,#449);
#399=AXIS2_PLACEMENT_3D('',#574,#453,#454);
#400=AXIS2_PLACEMENT_3D('',#575,#455,#456);
#401=AXIS2_PLACEMENT_3D('',#579,#458,#459);
#402=AXIS2_PLACEMENT_3D('',#583,#461,#462);
#403=AXIS2_PLACEMENT_3D('',#587,#464,#465);
#404=AXIS2_PLACEMENT_3D('',#588,#466,#467);
#405=AXIS2_PLACEMENT_3D('',#594,#471,#472);
#406=AXIS2_PLACEMENT_3D('',#600,#476,#477);
#407=AXIS2_PLACEMENT_3D('',#606,#481,#482);
#408=AXIS2_PLACEMENT_3D('',#612,#486,#487);
#409=AXIS2_PLACEMENT_3D('',#616,#489,#490);
#410=AXIS2_PLACEMENT_3D('',#617,#491,#492);
#411=AXIS2_PLACEMENT_3D('',#618,#493,#494);
#412=AXIS2_PLACEMENT_3D('',#619,#495,#496);
#413=AXIS2_PLACEMENT_3D('',#620,#497,#498);
#414=AXIS2_PLACEMENT_3D('',#621,#499,#500);
#415=AXIS2_PLACEMENT_3D('',#626,#503,#504);
#416=AXIS2_PLACEMENT_3D('',#629,#506,#507);
#417=AXIS2_PLACEMENT_3D('',#630,#508,#509);
#418=AXIS2_PLACEMENT_3D('',#634,#512,#513);
#419=AXIS2_PLACEMENT_3D('',#638,#516,#517);
#420=AXIS2_PLACEMENT_3D('',#639,#518,#519);
#421=AXIS2_PLACEMENT_3D('',#643,#522,#523);
#422=AXIS2_PLACEMENT_3D('',#644,#524,#525);
#423=AXIS2_PLACEMENT_3D('',#646,#527,#528);
#424=AXIS2_PLACEMENT_3D('',#647,#529,#530);
#425=AXIS2_PLACEMENT_3D('',#648,#531,#532);
#426=AXIS2_PLACEMENT_3D('',#649,#533,#534);
#427=AXIS2_PLACEMENT_3D('',#650,#535,#536);
#428=AXIS2_PLACEMENT_3D('',#651,#537,#538);
#429=AXIS2_PLACEMENT_3D('',#652,#539,#540);
#430=AXIS2_PLACEMENT_3D('',#653,#541,#542);
#431=DIRECTION('',(0.,0.,1.));
#432=DIRECTION('',(1.,0.,0.));
#433=DIRECTION('',(0.,-1.,0.));
#434=DIRECTION('',(0.,0.,-1.));
#435=DIRECTION('',(-1.,0.,0.));
#436=DIRECTION('',(0.,0.,1.));
#437=DIRECTION('',(-1.,0.,0.));
#438=DIRECTION('',(0.,0.,-1.));
#439=DIRECTION('',(0.,0.,1.));
#440=DIRECTION('',(1.,0.,0.));
#441=DIRECTION('',(0.,1.,0.));
#442=DIRECTION('',(1.,0.,0.));
#443=DIRECTION('',(0.,1.,0.));
#444=DIRECTION('',(-1.,0.,0.));
#445=DIRECTION('',(0.,0.,1.));
#446=DIRECTION('',(1.,0.,0.));
#447=DIRECTION('',(-1.,0.,0.));
#448=DIRECTION('',(0.,0.,1.));
#449=DIRECTION('',(1.,0.,0.));
#450=DIRECTION('',(0.,1.,0.));
#451=DIRECTION('',(1.,0.,0.));
#452=DIRECTION('',(0.,1.,0.));
#453=DIRECTION('',(0.,0.,1.));
#454=DIRECTION('',(1.,0.,0.));
#455=DIRECTION('',(0.,0.,1.));
#456=DIRECTION('',(1.,0.,0.));
#457=DIRECTION('',(0.,-1.,0.));
#458=DIRECTION('',(0.,0.,1.));
#459=DIRECTION('',(1.,0.,0.));
#460=DIRECTION('',(-1.,0.,0.));
#461=DIRECTION('',(0.,0.,1.));
#462=DIRECTION('',(1.,0.,0.));
#463=DIRECTION('',(0.,-1.,0.));
#464=DIRECTION('',(0.,0.,1.));
#465=DIRECTION('',(1.,0.,0.));
#466=DIRECTION('',(1.,0.,0.));
#467=DIRECTION('',(0.,0.,-1.));
#468=DIRECTION('',(0.,-1.,0.));
#469=DIRECTION('',(0.,0.,-1.));
#470=DIRECTION('',(0.,0.,-1.));
#471=DIRECTION('',(0.,-1.,0.));
#472=DIRECTION('',(0.,0.,-1.));
#473=DIRECTION('',(-1.,0.,0.));
#474=DIRECTION('',(0.,0.,1.));
#475=DIRECTION('',(0.,0.,-1.));
#476=DIRECTION('',(1.,0.,0.));
#477=DIRECTION('',(0.,0.,-1.));
#478=DIRECTION('',(0.,0.,-1.));
#479=DIRECTION('',(0.,-1.,0.));
#480=DIRECTION('',(0.,0.,-1.));
#481=DIRECTION('',(0.,-1.,0.));
#482=DIRECTION('',(0.,0.,-1.));
#483=DIRECTION('',(-1.,0.,0.));
#484=DIRECTION('',(0.,0.,-1.));
#485=DIRECTION('',(0.,0.,-1.));
#486=DIRECTION('',(0.,0.,1.));
#487=DIRECTION('',(1.,0.,0.));
#488=DIRECTION('',(0.,1.,0.));
#489=DIRECTION('',(0.,0.,1.));
#490=DIRECTION('',(1.,0.,0.));
#491=DIRECTION('',(0.,0.,1.));
#492=DIRECTION('',(1.,0.,0.));
#493=DIRECTION('',(0.,0.,1.));
#494=DIRECTION('',(1.,0.,0.));
#495=DIRECTION('',(0.,0.,1.));
#496=DIRECTION('',(1.,0.,0.));
#497=DIRECTION('',(0.,0.,1.));
#498=DIRECTION('',(1.,0.,0.));
#499=DIRECTION('',(0.,0.,1.));
#500=DIRECTION('',(1.,0.,0.));
#501=DIRECTION('',(0.,1.,0.));
#502=DIRECTION('',(-1.,0.,0.));
#503=DIRECTION('',(1.,0.,0.));
#504=DIRECTION('',(0.,0.,-1.));
#505=DIRECTION('',(0.,0.,1.));
#506=DIRECTION('',(1.,0.,0.));
#507=DIRECTION('',(0.,0.,-1.));
#508=DIRECTION('',(1.,0.,0.));
#509=DIRECTION('',(0.,0.,-1.));
#510=DIRECTION('',(0.,0.,1.));
#511=DIRECTION('',(0.,0.,1.));
#512=DIRECTION('',(0.,-1.,0.));
#513=DIRECTION('',(0.,0.,-1.));
#514=DIRECTION('',(0.,0.,1.));
#515=DIRECTION('',(1.,0.,0.));
#516=DIRECTION('',(1.,0.,0.));
#517=DIRECTION('',(0.,0.,-1.));
#518=DIRECTION('',(1.,0.,0.));
#519=DIRECTION('',(0.,0.,-1.));
#520=DIRECTION('',(0.,0.,1.));
#521=DIRECTION('',(0.,0.,1.));
#522=DIRECTION('',(1.,0.,0.));
#523=DIRECTION('',(0.,0.,-1.));
#524=DIRECTION('',(0.,1.,0.));
#525=DIRECTION('',(0.,0.,1.));
#526=DIRECTION('',(-1.,0.,0.));
#527=DIRECTION('',(1.,0.,0.));
#528=DIRECTION('',(0.,0.,-1.));
#529=DIRECTION('',(-1.,0.,0.));
#530=DIRECTION('',(0.,0.,1.));
#531=DIRECTION('',(0.,0.,1.));
#532=DIRECTION('',(1.,0.,0.));
#533=DIRECTION('',(0.,0.,-1.));
#534=DIRECTION('',(-1.,0.,0.));
#535=DIRECTION('',(0.,0.,-1.));
#536=DIRECTION('',(-1.,0.,0.));
#537=DIRECTION('',(0.,0.,1.));
#538=DIRECTION('',(1.,0.,0.));
#539=DIRECTION('',(0.,0.,-1.));
#540=DIRECTION('',(-1.,0.,0.));
#541=DIRECTION('',(0.,0.,1.));
#542=DIRECTION('',(1.,0.,0.));
#543=CARTESIAN_POINT('',(0.,0.,0.));
#544=CARTESIAN_POINT('',(0.,0.04375,0.009));
#545=CARTESIAN_POINT('',(0.,0.04375,0.009));
#546=CARTESIAN_POINT('',(-0.0233299123346805,0.04375,0.009));
#547=CARTESIAN_POINT('',(-0.04275,0.04375,0.009));
#548=CARTESIAN_POINT('',(-0.0233299123346805,0.04375,0.));
#549=CARTESIAN_POINT('',(-0.0233299123346805,0.04375,0.));
#550=CARTESIAN_POINT('',(0.,0.04375,0.));
#551=CARTESIAN_POINT('',(-0.04275,0.04375,0.));
#552=CARTESIAN_POINT('',(-0.04275,0.04375,0.009));
#553=CARTESIAN_POINT('',(-6.93889390390723E-18,0.000619882316372576,0.003));
#554=CARTESIAN_POINT('',(-0.0223299123346806,0.030271259136498,0.003));
#555=CARTESIAN_POINT('',(-0.0223299123346806,0.0165527536402508,0.003));
#556=CARTESIAN_POINT('',(-0.0223299123346806,0.03675,0.003));
#557=CARTESIAN_POINT('',(-6.93889390390723E-18,0.0165527536402508,0.003));
#558=CARTESIAN_POINT('',(0.00267008766531945,0.0165527536402508,0.003));
#559=CARTESIAN_POINT('',(0.00267008766531945,0.030271259136498,0.003));
#560=CARTESIAN_POINT('',(0.00267008766531945,0.03675,0.003));
#561=CARTESIAN_POINT('',(-6.93889390390723E-18,0.03675,0.003));
#562=CARTESIAN_POINT('',(6.93889390390723E-18,-6.93889390390723E-18,0.009));
#563=CARTESIAN_POINT('',(0.,0.04375,0.009));
#564=CARTESIAN_POINT('',(0.04275,0.04375,0.009));
#565=CARTESIAN_POINT('',(0.00367008766531944,0.04375,0.009));
#566=CARTESIAN_POINT('',(0.00367008766531944,0.04275,0.009));
#567=CARTESIAN_POINT('',(0.00267008766531945,0.04275,0.009));
#568=CARTESIAN_POINT('',(0.00267008766531945,0.030271259136498,0.009));
#569=CARTESIAN_POINT('',(0.00267008766531945,0.0155527536402508,0.009));
#570=CARTESIAN_POINT('',(-0.00982991233468056,0.0155527536402508,0.009));
#571=CARTESIAN_POINT('',(-0.0223299123346806,0.0155527536402508,0.009));
#572=CARTESIAN_POINT('',(-0.0223299123346806,0.030271259136498,0.009));
#573=CARTESIAN_POINT('',(-0.0223299123346806,0.04275,0.009));
#574=CARTESIAN_POINT('',(-0.0233299123346805,0.04275,0.009));
#575=CARTESIAN_POINT('',(-0.04275,0.04275,0.009));
#576=CARTESIAN_POINT('',(-0.04375,0.04275,0.009));
#577=CARTESIAN_POINT('',(-0.04375,0.,0.009));
#578=CARTESIAN_POINT('',(-0.04375,-0.04275,0.009));
#579=CARTESIAN_POINT('',(-0.04275,-0.04275,0.009));
#580=CARTESIAN_POINT('',(-0.04275,-0.04375,0.009));
#581=CARTESIAN_POINT('',(0.,-0.04375,0.009));
#582=CARTESIAN_POINT('',(0.04275,-0.04375,0.009));
#583=CARTESIAN_POINT('',(0.04275,-0.04275,0.009));
#584=CARTESIAN_POINT('',(0.04375,-0.04275,0.009));
#585=CARTESIAN_POINT('',(0.04375,0.,0.009));
#586=CARTESIAN_POINT('',(0.04375,0.04275,0.009));
#587=CARTESIAN_POINT('',(0.04275,0.04275,0.009));
#588=CARTESIAN_POINT('',(0.04375,0.,0.009));
#589=CARTESIAN_POINT('',(0.04375,0.,0.));
#590=CARTESIAN_POINT('',(0.04375,0.04275,0.));
#591=CARTESIAN_POINT('',(0.04375,-0.04275,0.));
#592=CARTESIAN_POINT('',(0.04375,0.04275,0.009));
#593=CARTESIAN_POINT('',(0.04375,-0.04275,0.009));
#594=CARTESIAN_POINT('',(0.,0.04375,0.009));
#595=CARTESIAN_POINT('',(0.,0.04375,0.));
#596=CARTESIAN_POINT('',(0.04275,0.04375,0.));
#597=CARTESIAN_POINT('',(0.00367008766531944,0.04375,0.));
#598=CARTESIAN_POINT('',(0.00367008766531944,0.04375,0.009));
#599=CARTESIAN_POINT('',(0.04275,0.04375,0.));
#600=CARTESIAN_POINT('',(-0.04375,0.,0.009));
#601=CARTESIAN_POINT('',(-0.04375,0.04275,0.009));
#602=CARTESIAN_POINT('',(-0.04375,0.04275,0.));
#603=CARTESIAN_POINT('',(-0.04375,0.,0.));
#604=CARTESIAN_POINT('',(-0.04375,-0.04275,0.));
#605=CARTESIAN_POINT('',(-0.04375,-0.04275,0.009));
#606=CARTESIAN_POINT('',(0.,-0.04375,0.009));
#607=CARTESIAN_POINT('',(0.,-0.04375,0.));
#608=CARTESIAN_POINT('',(0.04275,-0.04375,0.));
#609=CARTESIAN_POINT('',(-0.04275,-0.04375,0.));
#610=CARTESIAN_POINT('',(0.04275,-0.04375,0.009));
#611=CARTESIAN_POINT('',(-0.04275,-0.04375,0.));
#612=CARTESIAN_POINT('',(6.93889390390723E-18,-6.93889390390723E-18,0.));
#613=CARTESIAN_POINT('',(0.00267008766531945,-6.93889390390723E-18,0.));
#614=CARTESIAN_POINT('',(0.00267008766531945,0.03775,0.));
#615=CARTESIAN_POINT('',(0.00267008766531945,0.04275,0.));
#616=CARTESIAN_POINT('',(0.00367008766531944,0.04275,0.));
#617=CARTESIAN_POINT('',(0.04275,0.04275,0.));
#618=CARTESIAN_POINT('',(0.04275,-0.04275,0.));
#619=CARTESIAN_POINT('',(-0.04275,-0.04275,0.));
#620=CARTESIAN_POINT('',(-0.04275,0.04275,0.));
#621=CARTESIAN_POINT('',(-0.0233299123346805,0.04275,0.));
#622=CARTESIAN_POINT('',(-0.0223299123346806,0.04275,0.));
#623=CARTESIAN_POINT('',(-0.0223299123346806,-6.93889390390723E-18,0.));
#624=CARTESIAN_POINT('',(-0.0223299123346806,0.03775,0.));
#625=CARTESIAN_POINT('',(6.93889390390723E-18,0.03775,0.));
#626=CARTESIAN_POINT('',(-0.0223299123346806,0.030271259136498,0.003));
#627=CARTESIAN_POINT('',(-0.0223299123346806,0.0155527536402508,0.003));
#628=CARTESIAN_POINT('',(-0.0223299123346806,0.0155527536402508,0.004));
#629=CARTESIAN_POINT('',(-0.0223299123346806,0.0165527536402508,0.004));
#630=CARTESIAN_POINT('',(-0.0223299123346806,0.03675,0.002));
#631=CARTESIAN_POINT('',(-0.0223299123346806,0.03775,0.002));
#632=CARTESIAN_POINT('',(-0.0223299123346806,0.03775,-0.022));
#633=CARTESIAN_POINT('',(-0.0223299123346806,0.04275,0.009));
#634=CARTESIAN_POINT('',(-0.00982991233468056,0.0155527536402508,0.003));
#635=CARTESIAN_POINT('',(0.00267008766531945,0.0155527536402508,0.003));
#636=CARTESIAN_POINT('',(0.00267008766531945,0.0155527536402508,0.004));
#637=CARTESIAN_POINT('',(-0.00982991233468056,0.0155527536402508,0.004));
#638=CARTESIAN_POINT('',(0.00267008766531945,0.030271259136498,0.003));
#639=CARTESIAN_POINT('',(0.00267008766531945,0.0165527536402508,0.004));
#640=CARTESIAN_POINT('',(0.00267008766531945,0.04275,0.003));
#641=CARTESIAN_POINT('',(0.00267008766531945,0.03775,-0.022));
#642=CARTESIAN_POINT('',(0.00267008766531945,0.03775,0.002));
#643=CARTESIAN_POINT('',(0.00267008766531945,0.03675,0.002));
#644=CARTESIAN_POINT('',(-0.00982991233468055,0.03775,-0.022));
#645=CARTESIAN_POINT('',(-0.00982991233468055,0.03775,0.002));
#646=CARTESIAN_POINT('',(-6.93889390390723E-18,0.0165527536402508,0.004));
#647=CARTESIAN_POINT('',(-6.93889390390723E-18,0.03675,0.002));
#648=CARTESIAN_POINT('',(0.00367008766531944,0.04275,0.009));
#649=CARTESIAN_POINT('',(-0.0233299123346805,0.04275,0.003));
#650=CARTESIAN_POINT('',(-0.04275,0.04275,0.009));
#651=CARTESIAN_POINT('',(0.04275,0.04275,0.009));
#652=CARTESIAN_POINT('',(0.04275,-0.04275,0.009));
#653=CARTESIAN_POINT('',(-0.04275,-0.04275,0.009));
#654=MECHANICAL_DESIGN_GEOMETRIC_PRESENTATION_REPRESENTATION('',(#383),#655);
#655=(
GEOMETRIC_REPRESENTATION_CONTEXT(3)
GLOBAL_UNCERTAINTY_ASSIGNED_CONTEXT((#656))
GLOBAL_UNIT_ASSIGNED_CONTEXT((#659,#658,#657))
REPRESENTATION_CONTEXT('Part 1','TOP_LEVEL_ASSEMBLY_PART')
);
#656=UNCERTAINTY_MEASURE_WITH_UNIT(LENGTH_MEASURE(1.E-08),#659,'DISTANCE_ACCURACY_VALUE','Maximum Tolerance applied to model');
#657=(
NAMED_UNIT(*)
SI_UNIT($,.STERADIAN.)
SOLID_ANGLE_UNIT()
);
#658=(
NAMED_UNIT(*)
PLANE_ANGLE_UNIT()
SI_UNIT($,.RADIAN.)
);
#659=(
LENGTH_UNIT()
NAMED_UNIT(*)
SI_UNIT($,.METRE.)
);
#660=PRODUCT_DEFINITION_SHAPE('','',#661);
#661=PRODUCT_DEFINITION('','',#663,#662);
#662=PRODUCT_DEFINITION_CONTEXT('',#669,'design');
#663=PRODUCT_DEFINITION_FORMATION_WITH_SPECIFIED_SOURCE('','',#665,.NOT_KNOWN.);
#664=PRODUCT_RELATED_PRODUCT_CATEGORY('','',(#665));
#665=PRODUCT('Part 1','Part 1','Part 1',(#667));
#666=PRODUCT_CATEGORY('','');
#667=PRODUCT_CONTEXT('',#669,'mechanical');
#668=APPLICATION_PROTOCOL_DEFINITION('international standard','ap242_managed_model_based_3d_engineering',2020,#669);
#669=APPLICATION_CONTEXT('managed model based 3d engineering');
ENDSEC;
END-ISO-10303-21;
